<?xml version="1.0" encoding="utf-8"?><!DOCTYPE svg PUBLIC "-//W3C//DTD SVG 1.1//EN" "http://www.w3.org/Graphics/SVG/1.1/DTD/svg11.dtd"><svg version="1.1" xmlns="http://www.w3.org/2000/svg" width="400" height="400" viewBox="0 0 400 400"><g><g><rect fill="#000000" width="400" height="400" /></g><g><path fill="#ffffff" d=" M 184.84 57.95 C 187.56 56.99 189.85 54.62 192.94 54.98 C 197.50 55.06 202.11 54.63 206.63 55.30 C 209.78 57.44 211.87 60.77 214.99 62.94 C 217.69 64.76 221.92 62.95 223.82 66.17 C 226.85 70.24 231.45 72.65 234.82 76.36 C 235.48 82.51 232.30 88.95 234.98 94.93 C 236.45 98.88 241.69 98.81 243.59 102.41 C 245.21 105.09 247.60 107.37 248.77 110.28 C 249.57 116.83 251.58 123.14 252.40 129.69 C 252.94 133.36 256.90 134.63 259.59 136.45 C 262.30 137.87 262.84 141.17 264.65 143.40 C 267.88 145.25 272.31 144.12 275.02 146.99 C 278.50 149.95 282.62 151.98 286.25 154.74 C 289.22 157.04 293.85 157.43 295.51 161.20 C 296.22 166.22 289.84 166.36 287.82 169.82 C 285.75 174.15 286.87 179.36 284.64 183.64 C 281.19 188.71 274.54 190.03 270.75 194.76 C 269.13 196.67 269.25 199.32 268.58 201.62 C 265.58 204.75 260.78 205.71 258.17 209.35 C 258.13 209.97 258.06 211.19 258.02 211.81 C 263.22 213.41 268.81 213.08 273.94 215.02 C 279.01 216.82 284.96 217.33 288.92 221.33 C 289.99 226.38 285.25 230.01 282.57 233.67 C 279.16 234.11 275.20 233.83 272.80 236.78 C 269.97 240.11 265.57 241.48 262.86 244.91 C 260.51 247.55 256.43 247.49 253.92 249.87 C 252.57 251.95 251.59 254.30 251.21 256.75 C 255.90 258.74 261.04 257.66 265.95 258.13 C 269.13 258.33 270.92 261.28 273.29 262.97 C 275.60 263.44 277.69 262.05 279.88 261.58 C 283.54 262.72 286.50 265.38 290.09 266.70 C 291.88 266.09 293.31 264.71 295.10 264.07 C 298.16 263.55 301.22 264.31 304.27 264.56 C 307.10 264.76 309.93 263.52 312.74 264.17 C 315.76 265.51 318.61 267.56 322.07 267.45 C 328.26 267.79 331.70 273.75 337.13 275.88 C 340.03 281.73 345.42 285.53 349.85 290.11 C 353.49 293.69 353.36 299.26 353.21 304.00 C 353.21 308.03 349.83 310.65 347.24 313.24 C 343.62 316.49 341.92 321.18 338.89 324.90 C 336.56 327.82 336.89 332.39 333.43 334.45 C 331.12 336.11 329.33 338.34 327.60 340.58 C 325.15 344.03 318.70 344.17 317.01 339.90 C 314.49 334.83 321.28 330.56 319.67 325.42 C 318.76 318.92 325.45 314.44 325.22 308.06 C 325.23 301.69 321.98 295.70 323.31 289.26 C 320.46 287.73 317.28 286.98 314.37 285.58 C 312.11 283.97 310.14 281.40 307.02 281.84 C 303.03 281.24 300.24 284.60 296.80 285.88 C 291.92 286.90 288.01 282.78 283.23 282.69 C 278.66 282.37 275.04 278.29 270.29 279.57 C 267.94 277.73 266.07 274.95 262.89 274.54 C 259.23 273.82 255.85 271.74 252.04 271.88 C 249.68 271.64 248.33 274.34 245.97 274.11 C 241.70 274.99 239.03 269.02 234.73 270.88 C 229.29 274.78 222.79 277.57 215.97 277.04 C 212.57 276.48 210.97 280.16 208.02 280.97 C 204.84 281.91 201.57 283.42 198.21 282.92 C 195.68 281.82 193.54 280.02 190.99 278.97 C 185.89 281.01 180.63 283.20 175.04 283.05 C 165.02 282.98 155.01 282.96 145.00 283.05 C 139.98 283.14 135.04 282.01 130.03 281.88 C 127.65 282.12 126.39 279.37 124.24 279.18 C 121.68 282.30 119.37 285.70 115.71 287.68 C 113.18 293.50 107.59 297.11 104.69 302.68 C 102.80 307.64 105.22 313.36 103.27 318.25 C 100.02 320.56 95.57 320.45 91.73 320.17 C 87.50 319.25 83.63 322.19 81.21 325.37 C 80.24 330.89 81.13 336.53 82.89 341.80 C 80.35 345.09 75.99 346.25 71.99 346.05 C 66.34 345.94 60.45 343.17 55.04 345.98 C 51.05 344.24 45.44 340.53 47.30 335.45 C 49.56 332.68 52.28 330.32 54.74 327.74 C 57.64 324.63 61.70 322.63 63.90 318.88 C 65.53 316.35 66.13 313.30 67.79 310.80 C 72.16 307.80 77.94 306.73 81.24 302.26 C 83.06 299.76 85.27 297.61 87.72 295.73 C 90.84 293.80 89.18 289.15 92.15 287.11 C 95.61 284.74 96.50 280.32 99.70 277.72 C 104.17 273.77 106.39 267.81 111.43 264.44 C 117.74 260.05 121.35 253.03 126.69 247.66 C 129.37 245.07 130.20 241.30 132.31 238.32 C 136.59 231.99 143.14 227.57 146.88 220.82 C 150.93 214.40 156.05 208.76 161.29 203.29 C 162.75 201.64 164.69 199.10 163.03 196.95 C 160.53 193.23 155.74 192.23 151.63 191.40 C 147.58 190.78 143.54 190.01 139.47 189.58 C 134.23 188.78 131.78 196.63 126.43 194.74 C 123.03 191.32 119.69 187.44 118.10 182.82 C 117.76 178.01 118.91 173.20 119.42 168.43 C 124.17 163.50 123.53 155.34 129.52 151.47 C 131.52 149.70 132.46 147.09 134.09 145.01 C 136.58 141.50 140.84 139.84 143.58 136.60 C 144.24 134.20 144.38 131.65 145.37 129.35 C 147.04 126.43 150.34 124.77 151.60 121.57 C 153.25 117.69 155.46 114.09 157.41 110.36 C 158.75 108.12 158.26 105.43 158.98 103.03 C 160.41 100.59 163.09 99.05 164.26 96.47 C 164.24 93.52 164.17 90.50 166.00 87.99 C 168.77 84.26 167.21 79.34 169.46 75.42 C 171.30 72.17 169.01 68.93 167.96 65.89 C 167.72 61.84 172.08 59.69 175.21 58.22 C 178.27 56.56 181.62 57.77 184.84 57.95 M 181.28 124.41 C 180.92 128.13 180.89 132.24 178.13 135.11 C 176.58 137.40 173.35 139.54 174.17 142.65 C 176.54 145.35 179.81 147.08 182.25 149.72 C 183.49 150.77 184.76 152.77 186.65 151.84 C 189.70 149.08 191.36 144.77 195.57 143.43 C 196.04 138.95 197.96 134.88 199.20 130.62 C 199.06 128.03 197.57 125.71 196.57 123.36 C 195.46 121.24 194.13 118.07 191.15 119.00 C 187.62 120.38 185.35 124.12 181.28 124.41 M 203.51 182.47 C 197.82 183.53 193.72 188.12 190.32 192.46 C 189.27 195.89 191.50 199.42 192.52 202.66 C 194.98 204.24 198.11 202.87 200.84 203.41 C 206.26 204.18 211.78 203.65 217.13 204.87 C 221.93 205.45 226.05 201.57 227.26 197.15 C 222.58 193.70 218.54 189.49 215.42 184.58 C 212.09 182.05 207.53 181.35 203.51 182.47 M 212.06 226.84 C 205.01 224.77 197.30 223.76 190.20 226.22 C 184.79 227.24 179.42 229.69 173.83 228.48 C 169.56 228.57 165.22 229.60 161.31 231.27 C 159.63 234.00 159.04 237.37 156.71 239.70 C 153.42 243.09 150.30 246.62 147.01 250.00 C 143.56 254.36 141.67 259.76 137.98 263.96 C 136.66 265.27 137.07 267.21 136.97 268.89 C 143.27 267.91 149.64 267.84 155.99 268.03 C 163.01 268.33 169.95 266.83 176.97 267.15 C 180.32 267.43 183.64 268.27 187.03 268.06 C 189.52 268.21 191.14 266.01 193.25 265.07 C 195.12 265.04 196.97 265.41 198.84 265.44 C 200.33 265.04 201.52 263.89 203.05 263.62 C 207.38 263.27 211.23 261.01 215.54 260.49 C 220.44 255.73 226.29 251.58 233.08 250.08 C 235.05 249.67 236.76 248.56 238.59 247.77 C 239.94 247.20 241.59 247.63 242.84 246.82 C 246.39 244.18 245.23 238.90 243.74 235.40 C 241.84 233.87 239.44 233.05 237.74 231.26 C 234.83 228.44 232.12 224.88 227.93 223.99 C 222.44 222.83 217.12 225.14 212.06 226.84 Z" /><path fill="#ffffff" d=" M 230.16 300.23 C 233.10 300.13 235.85 299.22 238.15 297.35 C 242.44 300.47 247.84 301.06 252.47 303.48 C 255.79 305.10 259.48 306.24 262.22 308.84 C 263.94 311.43 264.69 315.10 262.84 317.85 C 257.59 316.31 251.28 320.29 246.93 316.08 C 243.09 313.02 238.48 310.56 233.52 310.14 C 230.53 309.16 227.98 307.13 225.37 305.40 C 224.53 302.67 227.67 300.32 230.16 300.23 Z" /><path fill="#ffffff" d=" M 186.16 312.42 C 192.21 307.74 200.86 310.50 205.89 315.34 C 206.44 317.27 205.64 319.17 204.81 320.89 C 199.73 321.40 194.20 321.04 189.81 318.19 C 188.04 316.77 185.75 314.98 186.16 312.42 Z" /><path fill="#ffffff" d=" M 136.42 315.48 C 142.57 314.46 149.19 314.44 154.98 317.04 C 158.01 318.32 162.15 317.94 163.84 321.34 C 165.02 323.93 162.05 325.20 160.26 326.23 C 156.37 328.09 152.87 331.06 148.44 331.51 C 144.21 332.08 139.75 332.63 135.59 331.44 C 131.54 330.33 130.36 325.68 129.94 322.03 C 129.90 318.43 133.31 316.27 136.42 315.48 Z" /></g></g></svg>