<?xml version="1.0" encoding="utf-8"?><!DOCTYPE svg PUBLIC "-//W3C//DTD SVG 1.1//EN" "http://www.w3.org/Graphics/SVG/1.1/DTD/svg11.dtd"><svg version="1.1" xmlns="http://www.w3.org/2000/svg" width="400" height="400" viewBox="0 0 400 400"><g><g><rect fill="#000000" width="400" height="400" /></g><g><path fill="#ffffff" d=" M 163.21 51.70 C 165.62 50.59 168.04 49.23 170.74 49.01 C 172.86 50.67 173.29 53.47 174.21 55.84 C 175.71 61.06 179.76 64.88 182.84 69.17 C 185.32 71.94 187.95 75.59 192.04 75.68 C 200.07 74.62 207.98 72.25 216.14 72.26 C 221.75 72.19 227.07 69.59 232.72 70.15 C 239.27 70.60 245.96 71.90 251.62 75.40 C 257.35 78.21 264.79 79.96 267.61 86.36 C 269.11 93.13 267.11 99.97 265.55 106.53 C 264.20 109.96 261.47 112.68 260.27 116.18 C 259.10 119.44 258.08 122.95 255.61 125.50 C 253.64 126.94 251.05 127.48 249.42 129.39 C 247.39 131.78 245.32 134.18 242.64 135.87 C 241.53 139.70 240.17 143.53 237.79 146.77 C 234.05 152.30 228.34 156.19 224.97 162.00 C 223.20 164.72 222.38 167.96 220.54 170.64 C 215.43 173.03 209.39 173.92 203.98 172.02 C 200.42 170.94 195.76 169.79 192.90 172.95 C 188.59 176.73 186.85 182.42 186.14 187.93 C 186.10 190.02 187.85 191.66 189.40 192.83 C 193.76 193.59 197.87 191.23 202.20 191.12 C 205.46 190.68 208.72 191.23 211.98 191.38 C 215.99 190.67 219.73 188.17 223.95 188.76 C 227.16 189.67 229.63 192.28 232.96 192.95 C 236.80 193.84 240.76 194.60 244.06 196.91 C 244.04 198.97 244.02 201.03 244.00 203.09 C 240.96 204.31 237.77 205.08 234.52 205.46 C 229.41 206.06 224.33 207.66 219.15 206.82 C 214.18 206.32 209.25 204.65 204.23 205.18 C 200.38 206.67 196.68 208.85 193.66 211.69 C 192.15 212.98 192.16 215.07 191.80 216.86 C 195.13 216.85 198.41 216.09 201.74 216.16 C 204.58 217.33 206.23 220.42 209.18 221.44 C 213.75 220.56 218.30 219.28 222.99 219.27 C 225.63 219.37 228.23 220.00 230.88 219.87 C 238.82 219.36 245.98 214.87 254.01 215.01 C 257.12 215.11 260.07 214.14 262.90 212.96 C 269.95 210.15 277.58 214.21 284.70 211.80 C 289.57 210.97 293.21 207.52 297.39 205.23 C 300.02 204.06 302.01 207.23 302.73 209.35 C 303.76 214.16 303.10 219.16 302.17 223.93 C 297.49 223.98 292.66 223.55 288.18 225.20 C 274.40 229.13 260.81 235.84 246.14 234.75 C 241.49 233.27 236.65 232.53 231.83 233.72 C 220.70 234.17 209.57 234.94 198.50 236.27 C 193.10 235.80 189.14 240.42 186.50 244.53 C 185.87 247.88 186.97 251.50 188.75 254.35 C 191.00 255.16 193.33 254.04 195.56 253.70 C 200.88 252.35 206.40 253.50 211.78 252.75 C 217.92 251.37 221.59 245.18 227.70 243.80 C 232.37 243.26 237.06 244.34 241.56 245.53 C 247.05 247.09 252.73 248.10 258.15 249.90 C 263.01 253.43 266.37 259.02 267.05 265.02 C 267.48 269.07 271.08 272.48 269.81 276.74 C 268.29 285.02 261.84 290.79 256.07 296.34 C 255.76 301.31 252.67 305.28 250.39 309.47 C 248.56 313.34 254.89 315.01 254.10 318.95 C 254.51 323.19 249.94 325.16 246.75 326.65 C 242.81 328.07 240.13 332.08 235.78 332.48 C 231.56 332.55 227.30 330.62 223.14 332.10 C 220.22 333.06 217.19 332.14 214.22 332.31 C 209.61 332.79 205.84 336.34 201.07 335.98 C 192.34 335.90 183.54 336.52 174.87 335.19 C 171.47 334.94 167.48 334.17 164.78 336.81 C 161.35 339.79 156.55 340.14 152.99 342.89 C 149.60 345.21 146.68 348.30 142.85 349.89 C 138.59 349.58 134.52 347.46 130.19 348.21 C 125.58 348.96 120.33 349.74 116.41 346.52 C 112.21 342.83 110.44 336.73 111.35 331.28 C 112.23 326.92 110.20 322.63 110.82 318.28 C 111.85 315.50 114.15 313.11 114.07 310.00 C 114.07 305.45 111.86 301.32 111.20 296.89 C 110.89 291.48 113.02 286.35 113.96 281.12 C 112.91 276.18 106.20 274.33 105.95 269.24 C 109.31 267.05 113.50 266.86 117.01 264.97 C 116.01 263.36 114.75 261.92 113.29 260.72 C 110.04 258.34 105.07 259.00 102.53 255.54 C 100.49 252.79 98.13 250.12 97.03 246.82 C 96.84 244.55 98.90 242.87 99.99 241.06 C 101.99 241.09 104.00 241.17 106.00 241.04 C 110.27 240.84 113.49 236.88 117.87 237.27 C 125.88 238.04 133.21 233.81 141.09 233.21 C 145.84 233.06 150.03 230.35 154.77 230.28 C 162.37 230.03 170.37 225.94 173.76 218.91 C 173.81 216.02 170.44 215.38 168.16 215.55 C 163.33 217.48 158.69 219.89 153.89 221.91 C 148.41 224.14 142.39 222.75 136.80 221.73 C 132.32 221.20 128.01 219.77 123.83 218.11 C 121.41 217.31 120.01 215.07 118.51 213.18 C 122.05 210.46 124.95 206.95 128.70 204.51 C 133.53 202.42 138.71 205.50 143.65 204.71 C 148.58 202.78 152.80 199.16 158.12 198.20 C 164.21 197.02 169.83 194.20 175.07 190.97 C 174.52 187.53 176.72 182.04 172.36 180.58 C 168.86 179.36 165.06 180.10 161.44 180.09 C 159.23 183.04 156.97 186.85 152.91 187.26 C 148.52 187.94 145.45 183.30 141.05 183.72 C 136.07 183.58 133.49 190.47 128.30 189.02 C 123.98 186.87 120.67 183.21 117.37 179.79 C 119.74 177.88 122.22 175.84 125.32 175.33 C 129.87 174.68 134.56 175.21 139.06 174.07 C 142.02 173.42 144.53 171.65 147.17 170.27 C 152.60 167.32 159.14 167.56 164.54 164.53 C 167.14 162.99 170.12 162.18 172.70 160.62 C 175.46 156.97 177.70 151.43 174.68 147.27 C 172.83 144.92 169.43 145.37 166.79 145.58 C 161.51 146.19 155.25 145.01 151.18 149.28 C 150.91 151.10 150.91 152.94 150.82 154.78 C 145.69 154.31 141.33 156.97 136.75 158.74 C 132.08 158.78 127.80 155.27 125.59 151.32 C 122.90 146.96 126.35 141.35 122.69 137.37 C 126.67 134.25 130.93 131.04 136.05 130.25 C 137.95 130.33 139.82 130.74 141.71 131.03 C 142.23 130.03 142.75 129.03 143.28 128.04 C 148.61 128.14 154.04 128.58 159.27 127.28 C 163.73 126.20 168.04 124.59 172.47 123.40 C 172.93 120.43 174.66 117.13 172.85 114.30 C 171.93 112.50 170.84 110.77 169.48 109.29 C 163.79 105.97 158.24 114.36 152.77 110.17 C 149.37 111.83 145.98 114.01 142.06 113.99 C 133.83 114.09 125.48 114.42 117.40 112.55 C 115.93 112.20 114.81 111.07 114.34 109.66 C 113.33 104.66 113.50 99.05 116.95 94.97 C 121.11 94.45 127.00 96.82 129.75 92.65 C 130.32 88.87 129.73 85.03 130.20 81.25 C 132.47 78.73 135.55 80.82 137.75 82.23 C 140.53 84.18 144.02 84.26 147.25 84.85 C 147.18 81.38 145.77 76.63 149.96 75.03 C 152.25 76.62 154.06 78.80 156.33 80.42 C 160.03 79.73 163.15 77.24 166.48 75.58 C 164.35 71.28 162.69 66.79 161.96 62.02 C 163.03 60.07 164.51 58.25 164.99 56.03 C 164.62 54.50 163.84 53.12 163.21 51.70 M 207.28 93.58 C 206.87 96.47 207.32 99.90 205.17 102.21 C 201.14 105.70 194.67 108.01 190.03 104.28 C 189.56 108.02 188.49 111.83 189.22 115.61 C 192.26 120.66 198.82 120.38 203.94 119.96 C 205.82 120.01 207.06 118.46 208.31 117.31 C 211.55 114.02 214.19 110.14 218.02 107.46 C 217.75 103.28 217.07 99.15 216.81 94.97 C 213.66 94.34 210.48 93.90 207.28 93.58 M 194.25 142.25 C 192.32 144.88 191.41 148.42 192.13 151.62 C 193.64 153.55 196.03 155.47 198.63 154.91 C 203.51 151.29 202.82 144.61 200.75 139.65 C 198.57 140.43 196.06 140.70 194.25 142.25 M 149.01 246.03 C 146.05 246.13 143.33 247.40 140.79 248.81 C 135.00 252.05 128.42 253.29 122.18 255.35 C 123.41 258.91 125.05 262.63 128.38 264.69 C 132.74 265.06 136.89 263.39 141.10 262.58 C 146.74 262.22 152.31 261.20 157.95 260.88 C 161.63 260.46 165.50 259.83 168.63 257.71 C 170.93 254.46 172.11 250.54 173.99 247.04 C 166.12 243.19 157.31 245.61 149.01 246.03 M 207.75 263.71 C 198.77 265.25 191.17 270.62 182.73 273.73 C 178.32 275.35 174.72 278.41 171.61 281.85 C 169.76 280.87 168.01 279.57 165.92 279.19 C 158.27 278.20 149.97 279.18 143.75 284.10 C 144.08 286.76 143.47 290.33 146.37 291.78 C 150.73 292.66 155.38 292.22 159.46 290.43 C 166.20 287.69 173.40 286.45 180.31 284.26 C 184.99 282.42 189.97 284.89 194.76 283.75 C 199.42 282.98 204.29 279.74 208.88 282.48 C 214.91 281.50 220.88 280.09 227.00 279.80 C 227.09 274.26 227.29 268.64 226.00 263.20 C 223.02 262.45 220.09 261.34 217.00 261.17 C 213.83 261.66 210.90 263.10 207.75 263.71 M 207.42 293.38 C 199.90 295.93 192.21 297.92 184.44 299.56 C 179.20 301.31 174.63 304.64 169.39 306.42 C 166.54 307.53 163.47 307.78 160.54 308.58 C 156.51 311.20 153.59 315.60 148.67 316.80 C 145.01 318.52 140.52 317.20 137.07 319.30 C 135.76 321.97 138.44 324.46 139.24 326.89 C 141.47 327.12 143.68 327.55 145.93 327.55 C 149.10 327.10 152.08 325.81 155.24 325.24 C 164.29 323.47 173.77 323.21 182.28 319.29 C 187.98 316.39 195.06 318.28 200.29 314.29 C 200.87 314.56 201.45 314.83 202.03 315.11 C 204.24 314.50 206.51 313.72 208.83 314.07 C 211.29 314.52 213.50 315.81 215.94 316.37 C 218.27 315.47 220.31 314.01 222.44 312.73 C 222.85 307.11 228.99 302.50 226.39 296.71 C 223.09 295.34 219.19 296.61 215.92 295.01 C 213.26 293.84 210.39 292.20 207.42 293.38 Z" /></g></g></svg>