<?xml version="1.0" encoding="utf-8"?><!DOCTYPE svg PUBLIC "-//W3C//DTD SVG 1.1//EN" "http://www.w3.org/Graphics/SVG/1.1/DTD/svg11.dtd"><svg version="1.1" xmlns="http://www.w3.org/2000/svg" width="400" height="400" viewBox="0 0 400 400"><g><g><rect fill="#000000" width="400" height="400" /></g><g><path fill="#ffffff" d=" M 73.87 148.89 C 74.96 146.83 75.84 144.18 78.11 143.17 C 80.91 143.53 83.73 144.35 86.18 145.78 C 88.35 147.82 88.37 151.46 90.96 153.17 C 93.60 154.87 96.66 156.37 99.89 156.06 C 103.34 155.73 106.11 153.44 109.26 152.25 C 113.24 151.71 117.24 152.95 121.23 152.41 C 126.79 151.74 132.39 152.31 137.95 151.89 C 142.45 151.09 146.61 148.96 151.12 148.17 C 153.89 147.90 156.46 149.33 159.20 149.49 C 161.11 149.22 162.88 148.40 164.77 148.04 C 166.94 149.76 168.22 152.28 169.35 154.74 C 161.61 161.28 151.03 160.02 141.87 162.67 C 137.24 162.58 132.60 162.39 127.98 162.11 C 124.36 165.84 119.21 165.82 114.47 166.52 C 110.72 168.62 106.53 169.29 102.28 169.38 C 102.14 171.23 102.04 173.08 101.96 174.94 C 105.25 175.57 108.58 175.86 111.90 176.23 C 115.08 176.60 117.73 178.85 120.96 179.02 C 127.93 179.38 135.73 179.09 141.15 174.07 C 144.92 175.31 148.80 176.63 152.84 176.37 C 155.35 176.31 158.34 175.66 160.27 177.75 C 163.43 180.70 161.95 185.69 159.70 188.71 C 155.06 192.47 148.83 190.24 143.46 190.94 C 138.96 193.18 133.57 192.35 129.37 195.31 C 125.56 196.39 121.37 195.71 117.57 197.13 C 113.05 198.34 108.29 198.11 103.78 199.41 C 102.97 198.94 102.16 198.47 101.35 198.01 C 97.78 198.66 93.67 197.07 90.65 199.65 C 87.65 201.97 84.17 203.90 81.87 206.98 C 83.19 210.90 87.10 213.07 90.43 215.11 C 92.86 215.37 95.21 214.18 97.52 213.57 C 102.71 211.51 108.41 211.63 113.67 209.80 C 116.53 208.78 119.57 210.17 122.47 209.40 C 128.69 207.48 135.26 208.83 141.62 208.62 C 145.85 207.95 149.25 204.82 153.54 204.38 C 157.39 203.70 161.15 206.55 164.89 204.71 C 165.99 207.07 167.09 209.44 168.14 211.82 C 165.47 213.95 163.11 216.79 159.70 217.73 C 156.19 218.49 152.69 217.17 149.18 217.19 C 146.09 218.27 143.39 220.27 140.22 221.18 C 133.95 222.96 127.38 222.27 120.97 221.88 C 117.78 221.57 114.73 222.61 111.81 223.73 C 107.52 225.37 102.79 224.90 98.45 226.32 C 90.41 229.62 81.50 228.80 73.00 228.93 C 66.60 228.70 60.24 229.41 53.90 230.19 C 49.87 231.07 48.10 225.54 49.25 222.45 C 52.28 217.99 57.93 216.39 61.09 212.07 C 65.64 207.41 64.56 200.17 62.38 194.64 C 61.93 192.39 63.60 190.33 64.37 188.30 C 63.83 186.61 63.14 184.93 63.04 183.14 C 63.89 180.56 65.97 178.67 67.55 176.53 C 70.30 173.08 71.40 168.72 72.75 164.61 C 74.92 159.56 71.48 153.91 73.87 148.89 Z" /><path fill="#ffffff" d=" M 319.73 144.67 C 323.41 143.86 326.41 146.88 329.97 147.10 C 332.37 146.85 334.41 145.16 336.84 145.06 C 341.12 146.79 343.95 150.68 347.26 153.73 C 348.83 155.51 351.49 157.12 350.77 159.88 C 350.25 163.49 350.40 167.12 350.98 170.71 C 348.67 172.80 345.72 174.34 343.98 176.97 C 342.98 180.38 343.11 184.00 342.55 187.49 C 338.81 188.69 333.55 188.63 331.95 192.98 C 330.77 195.69 328.09 197.20 326.31 199.45 C 325.92 202.44 326.98 205.61 325.52 208.44 C 324.35 211.04 323.63 214.42 320.77 215.69 C 315.81 215.21 309.83 211.05 305.51 215.45 C 302.60 218.79 296.11 214.72 294.61 219.66 C 292.96 224.31 291.60 229.56 293.51 234.35 C 294.92 239.15 290.09 242.32 286.86 244.87 C 283.48 247.10 283.67 252.06 280.04 254.06 C 277.81 255.51 275.54 258.22 272.60 257.37 C 269.00 257.07 268.03 253.05 266.50 250.44 C 264.86 247.91 266.13 244.88 265.87 242.11 C 265.52 238.93 263.81 236.05 263.54 232.85 C 263.67 230.21 264.96 227.76 264.97 225.11 C 264.32 221.77 262.21 218.95 261.21 215.73 C 260.54 213.04 262.69 210.27 261.42 207.65 C 259.10 203.09 260.83 197.92 262.10 193.31 C 263.44 189.14 261.34 184.75 262.60 180.57 C 263.54 176.19 265.64 171.86 264.94 167.30 C 261.79 164.75 257.39 164.76 253.69 163.40 C 247.09 160.92 240.42 164.59 234.71 167.63 C 228.90 168.16 223.22 169.50 217.50 170.59 C 214.70 171.10 211.71 174.25 209.00 172.05 C 207.13 170.58 205.74 168.60 204.18 166.83 C 203.18 165.47 201.55 164.15 202.06 162.27 C 204.79 160.28 208.44 160.79 211.42 159.39 C 213.11 158.58 214.71 157.41 216.67 157.44 C 220.39 157.54 222.98 154.44 226.31 153.30 C 232.28 151.10 238.75 151.96 244.87 152.87 C 252.63 151.63 260.54 151.75 268.35 152.55 C 272.24 153.00 275.09 149.71 278.59 148.66 C 284.22 147.07 290.12 148.19 295.71 149.35 C 303.82 148.51 311.61 145.51 319.73 144.67 M 287.82 167.02 C 285.86 171.67 290.84 174.68 292.53 178.45 C 293.29 181.20 293.03 184.11 293.18 186.93 C 298.43 188.90 304.06 187.19 308.84 184.78 C 312.04 183.33 310.89 179.48 311.85 176.78 C 312.16 174.97 313.87 172.62 311.85 171.22 C 305.52 164.89 295.83 167.35 287.82 167.02 Z" /></g></g></svg>