<?xml version="1.0" encoding="utf-8"?><!DOCTYPE svg PUBLIC "-//W3C//DTD SVG 1.1//EN" "http://www.w3.org/Graphics/SVG/1.1/DTD/svg11.dtd"><svg version="1.1" xmlns="http://www.w3.org/2000/svg" width="400" height="400" viewBox="0 0 400 400"><g><g><rect fill="#000000" width="400" height="400" /></g><g><path fill="#ffffff" d=" M 175.71 57.76 C 178.17 56.22 180.67 58.36 183.09 58.91 C 187.79 60.60 193.04 59.33 197.66 61.27 C 198.74 62.44 199.47 63.87 200.31 65.22 C 202.56 65.16 204.81 65.19 207.06 65.30 C 206.36 67.51 205.40 69.63 204.38 71.70 C 208.22 75.58 211.93 80.29 212.11 85.99 C 212.45 89.47 210.31 92.51 210.03 95.88 C 210.27 98.46 211.00 100.96 211.55 103.49 C 216.47 105.06 221.44 106.87 225.34 110.41 C 227.08 109.55 228.74 107.98 230.77 108.10 C 232.50 109.00 233.94 110.37 235.75 111.12 C 242.59 112.42 249.47 110.90 256.05 109.04 C 263.01 107.96 266.76 100.29 274.01 99.86 C 278.22 98.61 281.58 102.06 284.62 104.39 C 288.14 108.54 291.59 113.19 292.36 118.73 C 293.37 125.34 300.00 128.24 304.12 132.70 C 303.23 134.06 302.32 135.41 301.44 136.77 C 302.15 138.76 303.08 140.77 302.99 142.93 C 302.67 145.64 300.96 148.06 301.11 150.83 C 301.41 154.60 301.96 158.40 303.43 161.91 C 300.97 164.63 297.76 166.93 296.39 170.45 C 295.29 173.10 296.71 175.81 297.71 178.24 C 296.23 180.28 294.70 182.29 293.48 184.49 C 291.57 187.98 292.38 192.20 290.78 195.80 C 289.40 199.47 285.62 201.72 284.68 205.61 C 283.32 209.69 283.50 214.92 279.57 217.60 C 275.84 220.18 272.86 224.00 268.42 225.42 C 264.48 226.77 260.29 227.11 256.15 227.09 C 254.68 223.21 255.07 219.04 254.94 214.98 C 254.94 210.45 251.59 206.60 252.15 202.02 C 252.58 195.15 252.06 188.19 253.43 181.41 C 254.51 175.92 259.89 171.29 257.65 165.33 C 255.08 159.87 254.55 153.85 254.13 147.91 C 253.89 143.63 255.86 139.57 255.74 135.31 C 252.62 127.56 242.95 127.55 235.93 127.95 C 232.67 127.60 230.36 130.11 228.00 131.90 C 224.70 130.38 221.14 130.59 217.79 131.82 C 214.01 133.52 210.80 129.87 207.04 129.98 C 202.18 129.78 197.26 129.85 192.46 130.72 C 189.71 131.20 187.92 134.04 185.02 134.04 C 181.43 134.32 177.66 134.26 174.39 132.59 C 171.09 130.90 167.26 132.26 163.80 131.17 C 159.73 130.08 155.49 130.20 151.37 129.53 C 146.89 128.51 146.30 122.95 147.15 119.20 C 148.36 115.73 151.29 113.27 153.22 110.22 C 155.97 106.22 155.99 100.93 159.20 97.19 C 161.33 94.61 162.39 91.41 163.43 88.28 C 164.22 85.31 168.00 84.47 168.99 81.72 C 169.63 76.31 162.64 73.48 163.02 68.18 C 164.79 62.53 170.95 60.32 175.71 57.76 Z" /><path fill="#ffffff" d=" M 74.47 96.39 C 76.65 94.92 78.89 92.46 81.78 93.06 C 87.14 94.85 92.11 99.07 93.17 104.86 C 93.79 109.62 99.60 110.51 101.20 114.70 C 102.40 117.04 103.37 120.17 106.25 120.87 C 111.50 121.49 116.48 118.44 121.75 119.34 C 124.85 119.86 128.06 119.87 131.06 120.86 C 134.33 122.70 135.49 127.11 134.84 130.61 C 131.71 134.91 125.93 134.72 121.19 134.95 C 116.76 135.85 112.90 138.45 108.53 139.60 C 107.62 142.31 106.16 144.96 106.28 147.91 C 106.50 152.59 105.80 157.23 105.45 161.89 C 105.28 164.97 103.34 167.49 102.25 170.27 C 100.93 175.47 102.38 180.78 103.39 185.89 C 103.09 189.26 100.55 191.95 99.72 195.20 C 99.68 199.68 101.89 204.13 100.69 208.59 C 98.86 212.05 95.21 213.90 92.85 216.91 C 91.46 218.48 92.32 220.69 92.31 222.56 C 93.01 225.55 90.81 228.00 89.52 230.47 C 87.31 234.61 84.51 238.48 82.92 242.93 C 82.30 246.13 78.67 246.74 76.33 248.35 C 73.58 250.26 70.15 250.08 66.96 250.23 C 65.84 247.40 65.83 244.35 66.06 241.37 C 67.75 239.96 70.58 239.26 70.99 236.82 C 72.01 232.03 72.28 227.12 73.30 222.33 C 74.22 218.52 71.75 215.10 70.03 211.93 C 68.51 209.70 70.24 206.93 69.47 204.50 C 68.47 201.06 67.92 197.52 67.92 193.94 C 67.95 190.52 66.51 187.35 66.14 184.00 C 66.32 181.67 67.47 179.55 67.68 177.23 C 66.68 174.52 64.70 172.05 64.92 169.01 C 64.73 162.89 68.01 157.24 67.81 151.14 C 66.96 146.24 65.92 141.08 62.40 137.33 C 63.50 136.41 64.61 135.50 65.71 134.58 C 65.94 130.74 66.02 126.85 67.12 123.14 C 67.86 120.64 68.29 117.98 67.58 115.41 C 66.50 111.19 66.54 106.70 67.42 102.44 C 69.40 100.04 72.09 98.37 74.47 96.39 Z" /><path fill="#ffffff" d=" M 166.81 145.37 C 170.26 144.69 173.19 142.16 176.76 142.03 C 178.44 143.00 179.70 144.51 181.03 145.90 C 182.74 144.78 184.40 143.08 186.63 143.52 C 189.77 144.04 192.74 142.79 195.79 142.46 C 198.83 144.38 201.22 147.25 204.63 148.59 C 204.17 146.76 203.66 144.95 203.14 143.13 C 203.57 142.82 204.41 142.20 204.83 141.89 C 207.35 144.90 211.05 145.26 214.69 145.43 C 218.39 146.39 221.55 143.76 225.04 143.10 C 226.90 143.06 228.78 143.66 230.38 144.58 C 234.27 148.24 237.89 152.30 240.42 157.03 C 238.83 158.61 237.22 160.34 235.03 161.05 C 232.45 161.99 229.59 161.02 227.03 162.07 C 223.33 163.48 219.64 165.06 216.49 167.51 C 213.67 169.73 209.92 169.62 206.66 170.73 C 203.69 173.09 200.94 175.93 199.09 179.26 C 199.02 181.60 200.11 183.76 200.41 186.05 C 200.37 187.94 199.83 189.77 199.44 191.61 C 202.10 193.92 204.02 197.36 207.57 198.41 C 211.84 200.01 217.05 200.34 220.04 204.23 C 220.42 207.42 217.15 209.25 215.16 211.17 C 211.79 213.61 208.08 217.22 203.56 216.18 C 198.85 214.99 193.08 214.67 189.26 218.20 C 187.27 219.95 185.29 221.89 184.29 224.39 C 183.80 226.91 184.53 229.45 184.87 231.94 C 182.65 233.49 180.18 234.61 177.86 235.99 C 176.40 239.42 175.36 243.05 173.30 246.22 C 173.41 252.57 176.67 258.50 180.93 263.05 C 184.04 266.33 188.94 265.48 192.79 267.17 C 196.64 268.38 199.60 271.42 203.48 272.52 C 204.62 272.96 205.69 272.08 206.72 271.72 C 211.54 269.34 216.68 267.45 221.98 266.52 C 226.58 267.77 231.13 269.26 235.82 270.26 C 239.82 271.01 242.78 273.93 246.26 275.77 C 251.17 276.51 256.47 276.37 260.90 273.89 C 265.42 271.20 271.58 270.93 275.96 274.06 C 281.17 277.41 287.63 275.03 293.29 276.82 C 296.56 278.07 299.74 276.07 303.02 275.96 C 307.12 275.53 310.66 278.31 314.69 278.39 C 318.26 278.01 321.55 276.43 324.92 275.27 C 327.91 277.62 331.73 277.81 335.24 278.80 C 338.77 280.68 338.35 285.11 337.26 288.33 C 335.91 292.21 335.39 296.32 334.16 300.21 C 331.89 303.04 328.58 304.80 325.45 306.52 C 322.75 308.17 319.23 306.67 316.65 308.64 C 311.96 311.86 307.32 315.26 303.30 319.29 C 297.45 326.44 290.83 332.93 284.04 339.17 C 280.51 337.71 276.55 334.68 272.64 336.59 C 268.45 338.85 263.95 340.44 259.64 342.45 C 255.26 342.57 250.76 342.41 246.42 341.73 C 242.04 338.92 240.99 333.10 236.65 330.27 C 231.13 329.54 224.42 331.51 220.11 326.89 C 216.18 323.99 217.47 317.52 212.64 315.44 C 210.26 315.29 207.86 316.14 205.50 315.65 C 203.24 314.23 201.40 312.27 199.63 310.31 C 197.10 307.44 193.36 306.06 190.72 303.32 C 188.06 300.53 184.59 298.77 181.55 296.47 C 178.16 294.02 173.91 293.01 170.72 290.26 C 167.95 287.88 168.19 283.92 168.32 280.61 C 162.94 279.08 157.45 275.02 157.14 268.98 C 156.99 264.28 155.10 259.56 151.34 256.62 C 148.99 255.29 146.21 255.17 143.71 254.23 C 142.58 253.19 143.10 251.39 142.87 250.02 C 143.01 247.75 142.47 244.99 144.27 243.24 C 145.77 241.39 147.71 239.87 148.87 237.76 C 149.78 231.82 147.31 226.03 144.79 220.79 C 139.54 220.53 134.81 223.09 131.08 226.57 C 127.14 224.16 122.48 223.97 118.12 222.84 C 114.67 221.84 113.78 217.86 113.23 214.78 C 112.14 208.61 114.09 200.95 120.32 198.27 C 121.95 197.02 123.87 197.85 125.61 198.33 C 128.86 199.43 132.25 197.75 135.53 198.51 C 137.67 198.92 139.74 199.66 141.91 199.87 C 144.61 199.27 146.61 197.05 149.22 196.20 C 151.25 195.98 153.28 196.34 155.30 196.55 C 156.00 193.30 155.71 189.86 156.69 186.69 C 159.37 184.30 163.00 183.08 165.31 180.18 C 163.37 177.10 161.22 174.16 158.98 171.29 C 155.88 175.16 151.06 177.60 146.13 177.85 C 139.50 175.45 132.50 172.45 128.24 166.55 C 127.28 162.77 129.58 158.78 132.26 156.24 C 138.07 152.09 145.68 153.29 152.20 151.19 C 156.15 150.04 158.94 146.82 162.37 144.76 C 163.87 144.74 165.31 145.28 166.81 145.37 Z" /></g></g></svg>