<?xml version="1.0" encoding="utf-8"?><!DOCTYPE svg PUBLIC "-//W3C//DTD SVG 1.1//EN" "http://www.w3.org/Graphics/SVG/1.1/DTD/svg11.dtd"><svg version="1.1" xmlns="http://www.w3.org/2000/svg" width="400" height="400" viewBox="0 0 400 400"><g><g><rect fill="#000000" width="400" height="400" /></g><g><path fill="#ffffff" d=" M 191.47 75.57 C 195.57 71.38 202.19 70.90 207.58 72.39 C 210.41 73.08 211.77 75.72 212.91 78.13 C 214.19 81.34 218.11 82.44 219.27 85.72 C 221.87 91.14 222.33 97.21 223.97 102.93 C 220.59 105.88 216.48 107.74 212.43 109.56 C 208.52 111.25 204.15 110.00 200.31 108.73 C 196.10 107.17 191.81 105.84 187.51 104.58 C 188.40 101.89 189.86 99.43 190.79 96.76 C 190.85 92.97 189.77 89.20 190.54 85.41 C 191.24 82.16 189.66 78.55 191.47 75.57 Z" /><path fill="#ffffff" d=" M 97.03 110.69 C 99.11 105.93 102.00 100.83 107.21 99.04 C 112.08 98.45 112.61 105.00 115.44 107.71 C 117.24 107.87 118.81 106.74 120.43 106.13 C 121.69 107.34 122.99 108.52 124.05 109.91 C 126.04 112.59 125.67 116.47 128.23 118.79 C 131.29 121.69 135.06 123.67 138.63 125.87 C 140.79 124.59 142.84 123.04 145.25 122.25 C 150.86 121.46 156.56 122.06 162.15 122.74 C 166.10 123.18 170.09 122.42 174.02 123.04 C 178.22 123.74 182.62 122.44 186.64 124.28 C 191.36 125.16 194.40 129.03 197.67 132.18 C 199.16 131.15 200.50 129.79 202.25 129.22 C 205.09 129.23 207.90 130.18 210.75 129.84 C 214.81 128.91 218.05 125.85 222.11 125.05 C 226.89 125.18 231.72 126.35 236.50 125.43 C 241.18 124.30 245.71 122.66 250.31 121.27 C 253.88 120.11 257.46 121.70 261.03 121.97 C 266.04 122.77 270.56 119.08 275.60 120.51 C 276.72 119.81 277.80 119.00 279.04 118.51 C 283.68 118.80 288.23 120.65 292.91 119.74 C 295.29 119.28 297.72 119.09 300.07 119.82 C 301.49 118.62 302.82 117.30 304.42 116.34 C 307.63 115.52 311.00 116.20 314.21 116.75 C 318.26 117.22 320.96 120.64 323.73 123.27 C 326.57 125.85 325.90 129.89 325.84 133.31 C 329.00 134.17 332.23 133.62 335.37 132.95 C 335.39 133.82 335.39 134.68 335.35 135.54 C 331.93 138.91 328.41 142.48 326.48 146.94 C 326.66 149.61 327.45 152.24 327.28 154.93 C 326.67 157.97 324.13 160.64 324.94 163.90 C 325.26 167.15 328.09 170.17 326.60 173.49 C 324.59 178.48 324.26 184.37 320.40 188.44 C 319.57 189.59 318.20 190.62 318.33 192.20 C 318.23 197.54 319.44 203.14 317.32 208.25 C 312.28 213.58 306.37 218.34 303.01 225.02 C 300.58 230.05 295.37 235.03 289.34 233.51 C 285.39 230.95 281.60 226.33 283.22 221.33 C 284.44 218.90 286.06 216.68 287.22 214.22 C 288.64 210.65 293.05 210.18 295.37 207.41 C 297.11 205.22 299.45 203.72 302.04 202.71 C 300.17 197.61 297.53 192.61 297.28 187.08 C 297.23 182.91 297.04 178.71 297.62 174.56 C 298.44 170.17 294.64 166.54 295.00 162.20 C 296.00 159.88 297.85 158.09 299.03 155.88 C 298.57 151.29 295.19 147.71 293.14 143.75 C 294.54 139.07 295.87 134.21 294.80 129.29 C 293.38 127.86 291.21 127.16 289.23 127.23 C 286.31 128.45 284.23 130.99 281.57 132.62 C 274.92 134.78 267.90 133.39 261.10 134.03 C 257.22 134.19 255.44 137.95 252.70 140.02 C 246.13 140.32 242.90 132.80 236.93 131.11 C 234.95 131.36 233.39 132.72 231.95 133.97 C 229.32 136.71 225.25 136.57 221.79 137.36 C 218.81 138.18 215.98 136.71 213.13 136.09 C 212.37 137.98 211.94 139.99 211.43 141.96 C 208.19 141.60 204.85 140.55 201.62 141.56 C 197.55 142.53 193.95 144.86 189.90 145.83 C 183.74 146.40 177.51 146.05 171.41 145.12 C 170.80 146.40 170.24 147.70 169.73 149.02 C 174.23 150.47 179.63 150.25 183.14 153.86 C 184.31 154.73 185.35 156.23 186.99 156.07 C 190.14 155.75 192.73 153.52 195.84 152.97 C 198.53 153.01 201.12 154.09 203.82 153.87 C 206.21 153.39 208.45 152.36 210.78 151.65 C 211.70 153.79 212.56 155.95 213.43 158.11 C 217.17 156.76 221.05 155.91 224.89 154.86 C 230.69 152.97 237.04 155.16 242.76 152.80 C 245.17 151.73 247.78 152.26 250.27 152.70 C 252.74 153.21 255.16 152.00 257.64 152.29 C 260.19 153.07 262.60 154.25 265.08 155.24 C 264.85 156.29 264.63 157.35 264.41 158.40 C 253.77 160.36 243.19 162.59 232.56 164.57 C 229.01 165.45 224.98 163.42 221.83 165.82 C 218.47 167.48 218.62 171.80 218.35 175.01 C 219.35 178.82 221.88 182.00 223.38 185.62 C 225.09 189.02 225.16 192.89 225.41 196.60 C 227.29 198.35 230.50 199.88 229.98 202.95 C 229.52 206.88 228.40 210.70 227.47 214.53 C 226.79 218.11 223.28 219.79 220.50 221.55 C 216.09 224.41 210.68 224.59 205.78 226.12 C 205.62 231.29 207.26 237.13 211.90 239.98 C 219.89 242.59 228.01 246.13 236.62 245.19 C 239.91 243.88 243.13 242.35 246.44 241.08 C 247.15 242.17 247.86 243.26 248.57 244.37 C 251.16 240.86 252.57 235.24 257.89 235.31 C 261.65 237.33 263.79 241.59 268.12 242.80 C 264.97 246.63 262.41 252.90 256.45 252.09 C 255.86 249.54 255.26 247.00 254.60 244.47 C 253.78 245.07 252.98 245.70 252.20 246.36 C 252.26 248.15 253.24 249.74 253.82 251.40 C 249.87 252.87 245.68 253.52 241.64 254.71 C 237.64 256.35 235.40 250.58 231.44 251.47 C 227.33 252.09 225.04 255.80 223.00 259.00 C 220.75 262.71 217.28 265.76 216.18 270.09 C 215.34 273.41 213.82 276.50 211.80 279.27 C 214.97 281.68 218.06 284.34 219.55 288.16 C 223.83 287.55 228.00 285.88 232.39 286.43 C 235.42 286.88 238.13 285.32 240.41 283.52 C 242.57 284.63 245.15 285.31 246.59 287.42 C 248.12 289.35 249.25 291.64 251.21 293.20 C 254.17 293.09 257.10 292.54 260.05 292.17 C 261.30 286.53 266.41 282.53 272.09 282.13 C 279.55 281.73 287.03 281.98 294.49 282.31 C 296.50 282.48 298.19 281.16 299.92 280.35 C 304.87 282.99 310.63 281.79 315.99 282.04 C 322.38 282.27 328.69 280.96 335.07 281.28 C 340.43 279.97 345.81 281.67 350.95 283.11 C 356.65 284.78 355.12 292.18 354.69 296.65 C 351.76 302.17 346.23 305.61 341.71 309.70 C 338.47 312.71 338.71 318.57 333.95 319.93 C 330.75 322.16 326.92 320.76 323.37 321.23 C 319.90 322.52 317.55 325.64 314.17 327.05 C 308.44 329.03 302.34 328.34 296.44 327.93 C 289.61 329.04 286.52 321.35 281.29 318.62 C 277.91 316.66 274.67 319.72 271.79 321.18 C 268.51 315.99 267.69 309.36 262.86 305.18 C 258.86 306.23 255.61 303.62 252.34 301.81 C 250.96 303.29 249.68 304.93 247.97 306.06 C 246.56 305.56 245.25 304.84 243.92 304.18 C 241.47 305.28 239.02 307.00 236.21 306.67 C 231.73 306.28 227.53 304.42 223.08 303.95 C 220.93 304.65 219.07 305.98 217.11 307.08 C 212.61 304.09 207.80 300.95 202.25 300.63 C 199.06 300.08 195.96 301.22 192.87 301.78 C 188.71 302.48 184.46 304.44 182.15 308.12 C 180.23 310.74 179.83 314.05 178.96 317.10 C 175.22 315.71 171.41 314.50 167.62 313.28 C 162.37 312.00 156.94 313.07 151.67 313.62 C 149.02 313.89 146.73 311.90 144.08 312.09 C 139.35 312.54 134.64 314.19 129.85 313.25 C 125.21 313.11 120.36 310.94 115.86 312.90 C 111.79 314.51 107.28 314.49 103.27 316.28 C 98.58 318.51 93.25 318.50 88.17 318.52 C 85.21 317.31 82.35 315.34 78.98 315.91 C 75.82 315.75 73.46 318.00 71.19 319.85 C 66.62 316.69 61.24 318.83 56.23 318.91 C 53.50 317.90 51.69 315.32 49.37 313.63 C 45.90 311.06 45.32 306.24 46.28 302.30 C 46.93 299.86 45.18 297.66 45.28 295.28 C 46.46 292.01 49.57 289.41 53.07 289.11 C 57.69 288.65 62.34 289.33 66.95 288.89 C 70.03 288.56 72.61 286.34 75.69 286.15 C 78.05 287.26 80.13 289.51 82.97 289.00 C 88.18 288.28 93.45 288.21 98.65 287.60 C 102.84 285.40 107.61 283.16 112.42 284.68 C 117.00 286.39 121.85 285.02 126.57 285.50 C 130.90 286.04 135.09 284.44 139.40 284.39 C 144.04 283.93 148.20 286.57 152.75 286.90 C 154.82 287.03 156.85 286.50 158.92 286.50 C 161.50 286.90 163.98 288.29 166.67 287.81 C 172.21 287.12 177.60 285.53 182.91 283.83 C 185.45 283.05 186.39 280.22 186.84 277.88 C 187.22 274.40 187.31 270.83 186.68 267.39 C 184.85 265.47 182.29 264.52 180.05 263.18 C 176.16 265.30 171.84 267.46 167.28 266.75 C 164.20 266.37 161.10 265.96 157.98 266.11 C 153.57 266.12 148.91 267.35 144.75 265.28 C 141.47 263.60 137.82 262.25 135.11 259.73 C 135.23 256.95 135.97 254.24 136.47 251.52 C 140.24 250.60 144.02 249.71 147.76 248.69 C 150.83 247.81 153.49 245.90 156.55 245.00 C 164.32 243.72 172.23 243.99 180.07 244.05 C 183.96 244.34 187.15 241.79 190.67 240.61 C 192.02 239.84 194.84 239.33 193.87 237.22 C 192.01 234.20 189.88 231.17 187.08 228.96 C 181.83 226.23 175.81 225.59 170.01 225.08 C 166.67 224.92 165.13 228.54 163.53 230.86 C 160.10 231.00 156.63 230.71 153.23 231.28 C 151.41 231.99 149.84 233.19 148.05 233.94 C 145.76 233.13 143.60 231.69 142.32 229.60 C 141.24 224.29 141.93 218.51 144.85 213.88 C 146.77 211.76 149.70 211.14 152.36 210.47 C 153.14 207.84 154.38 204.98 157.39 204.37 C 160.73 202.70 165.84 203.66 167.61 199.67 C 169.36 196.72 170.23 193.17 172.90 190.84 C 174.89 188.88 177.73 186.58 176.86 183.42 C 173.78 178.85 167.85 177.96 162.82 177.10 C 155.80 175.27 152.35 185.19 145.41 183.75 C 142.08 180.91 142.88 176.15 141.67 172.36 C 141.46 170.58 140.24 168.39 141.75 166.87 C 145.25 162.96 149.48 159.51 151.62 154.59 C 153.38 151.06 148.06 150.63 145.94 149.23 C 145.28 148.07 144.65 146.89 143.92 145.78 C 140.65 147.37 138.08 150.01 135.13 152.08 C 132.05 154.32 128.99 156.77 126.91 160.02 C 125.63 161.49 126.81 163.36 127.07 164.99 C 128.45 168.27 125.38 171.64 127.09 174.88 C 128.02 176.87 127.72 179.01 127.05 181.01 C 126.21 183.44 126.80 186.00 126.55 188.50 C 124.96 190.89 122.50 192.65 121.25 195.28 C 121.07 197.58 122.71 199.63 123.04 201.90 C 121.46 204.55 118.49 206.51 118.61 209.93 C 118.64 214.00 115.11 217.81 117.18 221.77 C 117.74 223.42 118.30 225.07 118.85 226.73 C 117.35 227.94 115.79 229.10 114.35 230.39 C 112.29 232.17 111.69 234.98 110.04 237.07 C 107.39 239.46 103.98 240.87 101.47 243.44 C 100.10 244.95 100.24 247.12 99.97 249.01 C 99.97 252.92 97.36 256.16 94.90 258.94 C 91.18 260.52 87.27 261.80 83.33 262.73 C 81.81 261.62 80.44 260.28 79.38 258.71 C 80.23 255.13 81.11 251.51 80.24 247.83 C 78.93 240.60 86.46 236.02 87.35 229.31 C 88.53 224.66 84.37 220.74 85.01 216.06 C 85.36 211.37 83.92 206.88 83.38 202.31 C 85.72 197.82 89.89 193.91 89.13 188.38 C 86.87 186.42 84.03 184.80 82.77 181.97 C 84.53 174.73 86.57 167.50 87.28 160.05 C 87.94 156.37 89.50 152.81 89.05 148.98 C 88.68 141.44 85.95 133.01 90.04 126.05 C 93.53 122.86 98.11 120.12 99.05 115.03 C 98.61 113.48 97.75 112.11 97.03 110.69 M 198.47 184.51 C 195.67 187.05 194.27 190.82 191.24 193.16 C 189.77 194.42 187.96 195.28 186.68 196.76 C 185.14 199.63 184.34 203.59 186.59 206.33 C 189.77 209.66 194.68 210.07 199.02 210.19 C 201.45 210.16 204.19 210.89 206.40 209.52 C 208.94 207.51 210.14 204.18 210.11 201.00 C 210.81 193.68 204.59 188.41 199.69 183.97 C 199.38 184.10 198.78 184.37 198.47 184.51 Z" /></g></g></svg>