<?xml version="1.0" encoding="utf-8"?><!DOCTYPE svg PUBLIC "-//W3C//DTD SVG 1.1//EN" "http://www.w3.org/Graphics/SVG/1.1/DTD/svg11.dtd"><svg version="1.1" xmlns="http://www.w3.org/2000/svg" width="400" height="400" viewBox="0 0 400 400"><g><g><rect fill="#000000" width="400" height="400" /></g><g><path fill="#ffffff" d=" M 161.03 120.01 C 167.55 119.74 172.57 114.57 179.02 113.99 C 182.33 113.53 184.95 116.09 188.04 116.72 C 191.19 116.61 194.46 115.29 197.55 116.50 C 200.00 117.41 202.41 118.44 204.95 119.09 C 207.02 117.80 208.91 116.14 211.18 115.19 C 215.10 114.77 219.06 114.97 223.00 115.08 C 227.26 115.24 230.87 117.78 234.76 119.21 C 239.31 120.86 244.09 122.07 248.96 122.04 C 252.77 122.11 256.66 121.59 260.39 122.61 C 263.92 123.57 267.48 124.57 271.15 124.82 C 274.47 124.87 277.90 123.40 281.10 124.96 C 284.51 126.41 288.50 127.14 291.25 129.75 C 292.89 133.49 294.29 137.33 296.00 141.04 C 295.48 143.85 293.15 146.07 293.08 149.01 C 292.73 154.70 291.85 160.34 291.02 165.97 C 290.56 169.04 289.64 172.19 287.55 174.57 C 285.43 176.77 282.61 178.32 281.04 181.02 C 277.50 186.85 276.69 193.80 273.97 199.98 C 273.08 202.22 270.42 202.75 268.39 203.47 C 262.71 205.65 257.04 198.53 251.80 202.80 C 250.56 202.36 249.34 201.89 248.12 201.43 C 246.04 203.23 243.59 204.61 240.79 204.82 C 234.94 205.47 228.66 207.35 223.01 204.79 C 223.30 202.82 223.63 200.85 223.93 198.89 C 220.96 198.82 222.52 202.77 221.67 204.66 C 219.84 209.56 214.24 212.68 209.07 212.21 C 198.61 211.82 187.35 210.20 177.80 215.60 C 176.52 214.90 175.24 214.19 173.97 213.48 C 171.78 214.62 169.66 216.27 167.05 216.11 C 161.38 216.17 155.69 216.26 150.03 215.86 C 146.89 215.43 143.92 216.87 140.80 216.85 C 138.31 216.90 136.36 219.09 133.82 218.86 C 130.60 218.85 128.22 216.04 125.03 215.87 C 123.10 215.76 121.13 215.77 119.24 216.17 C 117.27 217.17 115.71 218.81 113.69 219.73 C 110.14 220.65 106.52 219.46 102.96 219.21 C 99.96 219.27 97.23 221.37 94.17 220.77 C 87.63 219.43 80.31 219.85 74.65 223.68 C 73.79 224.20 72.89 224.62 71.94 224.94 C 67.15 224.20 62.85 221.56 58.02 221.03 C 55.65 221.54 53.32 223.96 50.95 222.11 C 46.33 220.42 42.49 214.38 45.78 209.89 C 48.09 206.70 48.43 202.18 52.00 199.99 C 54.64 198.19 55.71 195.05 57.76 192.72 C 59.98 191.52 63.42 192.30 64.61 189.60 C 66.27 186.57 67.46 183.30 69.37 180.40 C 71.71 177.08 70.74 172.54 73.26 169.28 C 74.88 167.27 73.97 164.45 75.17 162.30 C 78.04 159.83 82.51 159.80 84.87 156.67 C 85.34 154.95 85.39 153.08 84.81 151.39 C 82.86 149.20 80.17 147.82 78.29 145.55 C 77.57 142.78 78.59 139.93 79.23 137.23 C 80.63 131.97 85.01 128.36 88.81 124.78 C 91.77 121.97 96.15 121.95 99.99 121.93 C 105.23 121.78 110.41 123.43 115.64 122.58 C 118.68 122.01 121.69 122.93 124.73 122.95 C 125.98 122.32 127.08 121.45 128.23 120.65 C 131.96 122.23 136.14 120.55 139.83 122.45 C 143.06 120.47 146.89 120.02 150.60 120.50 C 154.08 121.01 157.56 120.35 161.03 120.01 M 191.89 134.83 C 190.81 135.20 188.75 135.30 189.09 136.97 C 190.34 140.97 192.87 144.76 196.13 147.38 C 198.32 147.25 200.51 146.97 202.72 147.12 C 206.76 147.52 210.31 145.06 214.12 144.14 C 219.91 142.60 225.30 138.67 231.52 139.52 C 235.35 142.03 239.06 144.77 242.93 147.25 C 243.00 149.04 243.28 150.89 242.76 152.64 C 240.75 155.77 237.20 157.36 234.08 159.15 C 230.29 161.39 225.72 160.70 221.59 161.65 C 217.29 162.42 213.39 164.72 209.00 165.02 C 203.43 165.52 197.89 166.23 192.42 167.37 C 188.05 168.28 182.56 167.64 179.65 171.76 C 177.56 174.26 179.97 178.23 183.07 178.09 C 196.78 179.20 210.35 175.92 224.02 175.71 C 232.08 176.13 233.58 187.67 241.86 187.62 C 247.99 186.69 252.40 181.67 256.11 177.11 C 260.28 171.66 258.01 164.72 257.36 158.58 C 256.33 153.48 259.10 148.40 257.70 143.33 C 256.69 139.79 253.94 136.15 249.96 136.04 C 245.09 135.77 240.05 136.66 235.43 134.66 C 230.27 133.89 224.96 134.26 219.84 133.07 C 210.53 132.31 201.00 132.68 191.89 134.83 M 120.38 139.41 C 118.11 140.02 116.74 141.97 115.78 143.99 C 118.86 145.59 121.73 147.93 125.09 148.80 C 131.39 148.20 137.83 150.04 144.00 148.03 C 149.51 146.41 155.26 145.42 160.98 146.52 C 161.57 144.27 162.28 141.53 160.24 139.76 C 155.28 135.11 148.05 136.90 141.96 136.94 C 134.70 136.53 127.32 137.21 120.38 139.41 M 109.29 169.08 C 107.95 170.34 107.44 172.17 106.74 173.82 C 108.76 173.77 111.16 172.46 112.91 174.01 C 116.17 176.62 120.69 175.92 124.33 177.80 C 126.56 178.91 128.13 176.55 129.24 175.00 C 128.24 172.76 126.77 170.05 123.92 170.15 C 119.03 169.99 114.18 168.64 109.29 169.08 M 84.92 196.97 C 83.37 199.48 83.65 203.10 86.36 204.69 C 92.51 204.82 98.58 202.76 104.70 203.17 C 107.29 204.68 109.80 206.71 113.03 206.13 C 116.52 206.73 118.96 203.83 122.03 202.95 C 125.44 203.18 127.66 206.71 131.05 207.07 C 133.63 206.75 135.75 204.99 138.23 204.30 C 144.47 203.04 151.08 205.53 157.14 203.14 C 160.75 201.56 165.01 202.61 168.42 200.45 C 171.19 198.61 174.56 199.08 177.70 198.73 C 179.26 197.66 179.54 195.65 180.18 194.00 C 177.42 193.72 174.59 193.85 172.07 195.12 C 169.79 196.51 167.42 194.90 165.11 194.53 C 161.48 195.77 158.80 198.84 155.18 200.14 C 152.45 198.15 149.75 195.21 146.01 195.84 C 131.93 197.75 117.48 197.19 103.78 193.20 C 99.89 192.40 97.53 188.77 93.95 187.33 C 88.83 187.66 86.90 193.08 84.92 196.97 Z" /><path fill="#ffffff" d=" M 134.90 227.82 C 136.98 222.66 145.18 222.47 147.72 227.33 C 150.83 232.99 147.20 240.04 150.27 245.76 C 152.94 251.08 159.40 252.96 164.97 252.76 C 168.82 252.50 171.73 255.50 175.45 255.87 C 179.57 256.26 181.99 260.55 186.15 260.80 C 189.70 261.13 193.31 261.21 196.71 262.40 C 198.72 262.93 200.67 264.04 202.80 263.91 C 206.00 262.93 208.36 259.81 211.91 259.95 C 215.19 259.84 218.73 259.55 221.63 261.42 C 224.36 263.50 227.54 259.93 230.43 261.55 C 233.67 263.29 236.67 259.96 239.98 260.06 C 246.95 259.99 253.96 259.80 260.92 260.16 C 266.56 261.72 272.10 263.71 277.84 264.92 C 281.17 264.23 283.96 262.07 287.21 261.13 C 289.95 260.50 292.81 263.25 295.37 261.45 C 298.88 259.49 302.79 258.33 306.22 256.23 C 309.14 254.38 309.53 250.70 310.91 247.82 C 312.31 245.02 314.04 242.31 316.36 240.18 C 319.01 239.54 319.77 243.57 322.20 243.87 C 326.06 244.50 330.67 243.20 333.83 246.16 C 336.27 248.89 336.39 253.24 339.64 255.37 C 342.22 257.55 346.17 256.08 348.70 258.28 C 350.70 259.95 352.79 261.55 354.61 263.43 C 355.48 267.45 355.27 271.64 354.95 275.72 C 350.54 276.69 346.12 277.62 341.74 278.73 C 332.90 280.25 323.68 279.18 315.08 282.12 C 311.35 283.72 307.66 281.45 303.95 281.04 C 301.74 280.63 299.87 282.18 297.93 282.96 C 296.26 282.57 294.57 281.15 292.83 281.90 C 288.76 283.78 284.27 282.06 280.01 282.90 C 277.00 282.99 275.05 286.00 272.04 286.03 C 266.73 286.35 261.48 285.22 256.22 284.67 C 252.23 284.23 248.81 281.95 244.97 281.01 C 242.77 281.17 240.97 282.79 239.01 283.68 C 236.75 282.76 234.50 281.81 232.19 281.04 C 226.84 285.07 219.84 285.99 213.43 284.48 C 209.34 282.89 205.54 280.20 201.00 280.05 C 194.26 279.91 187.46 279.63 180.77 280.68 C 177.33 281.07 173.79 281.40 170.37 280.72 C 167.09 278.31 166.57 272.56 161.91 272.16 C 158.43 271.52 154.78 271.16 151.67 269.32 C 144.48 265.08 135.97 263.09 129.74 257.30 C 127.80 255.46 125.48 253.11 126.02 250.19 C 127.05 246.42 131.54 244.25 131.39 240.06 C 131.36 235.73 133.44 231.79 134.90 227.82 Z" /><path fill="#ffffff" d=" M 225.47 224.49 C 229.66 224.16 233.86 223.92 238.06 223.98 C 243.07 223.82 247.15 227.44 252.09 227.74 C 255.78 228.23 260.48 227.79 262.82 231.36 C 264.29 235.03 262.10 239.24 258.36 240.32 C 252.54 241.71 246.52 244.42 240.49 242.43 C 236.16 240.89 231.58 240.45 227.02 240.15 C 221.83 239.82 217.33 236.15 212.02 236.70 C 206.89 238.59 201.71 240.42 196.70 242.62 C 190.18 243.62 183.27 245.05 176.78 243.24 C 172.33 242.00 170.33 236.60 172.63 232.69 C 177.22 231.01 182.12 230.47 186.95 229.88 C 190.04 229.52 192.74 227.40 195.93 227.64 C 200.62 227.90 205.31 228.64 210.02 228.17 C 212.71 228.08 214.76 226.08 217.23 225.26 C 219.95 224.76 222.73 224.79 225.47 224.49 Z" /><path fill="#ffffff" d=" M 83.05 240.05 C 90.06 237.56 96.42 232.90 104.05 232.39 C 107.67 232.51 111.02 234.23 113.85 236.38 C 113.87 237.95 114.49 239.86 113.24 241.14 C 109.36 245.69 104.84 249.80 99.35 252.31 C 94.63 254.45 90.49 257.67 85.78 259.77 C 79.21 260.43 72.57 259.88 65.97 259.96 C 61.65 260.48 58.37 255.39 60.52 251.62 C 63.12 246.19 70.01 245.93 73.50 241.42 C 76.64 240.71 79.98 241.21 83.05 240.05 Z" /></g></g></svg>