<?xml version="1.0" encoding="utf-8"?><!DOCTYPE svg PUBLIC "-//W3C//DTD SVG 1.1//EN" "http://www.w3.org/Graphics/SVG/1.1/DTD/svg11.dtd"><svg version="1.1" xmlns="http://www.w3.org/2000/svg" width="400" height="400" viewBox="0 0 400 400"><g><g><rect fill="#000000" width="400" height="400" /></g><g><path fill="#ffffff" d=" M 136.23 64.23 C 138.83 62.08 141.61 59.60 145.01 58.97 C 152.05 59.90 156.23 66.71 162.64 69.15 C 165.19 69.65 168.27 68.50 170.23 70.77 C 174.98 75.26 181.56 76.35 187.48 78.49 C 189.80 80.85 192.29 83.19 194.06 86.02 C 190.74 92.21 187.24 98.37 185.05 105.08 C 183.74 108.90 182.70 112.93 180.26 116.21 C 178.26 118.79 174.71 118.88 171.88 119.99 C 168.87 120.82 166.36 123.29 163.07 123.00 C 157.69 122.79 152.41 124.18 147.04 123.86 C 145.06 123.85 142.68 123.41 141.24 125.16 C 136.64 129.03 136.70 137.69 129.78 138.68 C 124.87 138.55 120.48 142.30 119.69 147.11 C 124.15 146.21 128.23 144.19 132.37 142.39 C 137.25 140.23 142.80 141.53 147.76 139.67 C 151.12 138.21 155.23 137.66 157.40 134.36 C 158.78 132.12 161.59 132.34 163.83 131.70 C 167.59 130.71 171.43 130.11 175.21 129.19 C 178.21 128.63 179.19 125.35 180.51 123.04 C 183.63 123.12 186.87 124.06 189.92 123.05 C 191.77 121.16 192.56 117.85 195.61 117.56 C 200.17 115.74 204.21 119.88 208.74 119.44 C 212.21 118.21 214.10 114.86 216.48 112.30 C 217.73 110.83 220.00 111.59 221.37 112.46 C 222.89 115.27 223.64 118.82 226.86 120.22 C 231.66 117.69 236.46 115.13 241.33 112.73 C 246.88 110.64 252.27 115.11 257.89 113.86 C 263.45 112.44 269.12 111.02 274.91 111.18 C 277.73 111.67 280.25 113.14 282.92 114.14 C 287.47 111.18 292.65 114.18 297.48 114.68 C 299.94 116.49 302.42 118.33 305.59 118.65 C 306.75 121.59 309.16 125.46 306.20 128.15 C 302.66 131.39 300.64 135.84 297.12 139.08 C 294.59 141.28 295.31 145.02 293.64 147.70 C 291.38 151.21 288.86 155.13 284.70 156.55 C 281.75 156.41 278.99 155.07 276.04 154.94 C 273.81 154.96 271.91 156.28 269.94 157.14 C 267.61 156.21 265.33 155.18 263.05 154.15 C 258.05 156.67 252.16 156.57 246.87 155.10 C 243.14 154.05 239.16 153.41 235.33 154.27 C 233.28 154.94 232.11 156.85 230.77 158.40 C 228.32 157.53 225.72 157.39 223.15 157.76 C 221.93 156.00 220.82 154.15 219.38 152.56 C 216.48 152.18 213.46 152.55 210.77 151.11 C 209.34 154.01 209.28 157.23 209.69 160.37 C 210.36 164.19 207.81 167.41 206.93 170.95 C 205.47 175.94 203.67 181.20 199.24 184.36 C 199.04 187.59 199.27 190.96 197.97 194.01 C 195.33 199.22 199.16 204.79 201.81 209.19 C 204.66 210.50 207.86 210.88 210.64 212.38 C 213.76 214.02 213.88 218.47 217.14 219.98 C 219.82 221.34 222.59 223.21 225.75 222.71 C 230.29 221.96 233.97 225.38 237.94 226.98 C 241.68 228.40 243.28 232.37 246.38 234.63 C 252.17 239.82 261.75 236.73 266.73 243.26 C 270.71 248.50 278.50 245.76 283.16 249.84 C 285.31 253.34 287.06 257.15 290.19 259.96 C 292.39 258.68 294.56 257.35 296.76 256.07 C 299.59 259.30 302.86 262.10 305.72 265.29 C 308.14 267.95 308.97 271.82 311.86 274.08 C 315.84 276.68 319.93 279.25 324.57 280.49 C 328.94 281.39 329.49 287.09 333.55 288.49 C 337.42 290.13 341.91 289.42 345.66 291.36 C 348.40 294.09 346.47 298.86 349.32 301.60 C 353.04 304.87 352.42 310.27 351.57 314.65 C 350.30 317.84 349.39 321.15 349.77 324.62 C 345.48 324.76 341.26 326.03 338.03 328.95 C 334.64 325.79 329.82 324.92 325.35 325.22 C 322.91 325.63 322.09 328.18 320.97 330.01 C 319.20 333.35 316.77 336.91 312.90 337.87 C 309.67 337.71 306.45 336.47 303.21 337.21 C 299.34 338.16 295.83 340.22 291.89 340.90 C 288.25 341.53 284.69 340.09 281.47 338.53 C 276.68 336.19 273.78 331.32 269.05 328.89 C 266.97 327.70 264.54 328.76 262.31 328.56 C 259.45 327.33 257.45 324.78 254.85 323.15 C 252.09 321.23 248.59 320.94 245.76 319.19 C 241.50 316.57 238.20 312.72 235.06 308.91 C 232.66 306.05 232.24 302.04 229.77 299.24 C 226.29 295.87 221.17 294.80 217.85 291.20 C 214.51 286.91 208.66 286.60 204.41 283.58 C 201.73 282.30 200.59 279.42 198.73 277.30 C 196.56 274.64 192.69 274.20 190.62 271.42 C 187.44 267.43 183.23 264.35 178.46 262.54 C 175.40 261.13 171.95 260.64 169.01 258.96 C 166.62 255.15 166.01 250.54 164.05 246.52 C 162.10 248.42 160.44 250.59 158.67 252.66 C 156.50 255.22 153.48 256.83 151.11 259.18 C 148.46 261.90 147.67 266.29 144.00 267.98 C 137.02 271.66 130.48 277.39 128.24 285.20 C 127.43 287.78 126.68 290.69 124.22 292.23 C 119.78 295.05 114.45 295.83 109.55 297.55 C 105.29 300.56 101.19 303.83 97.03 306.99 C 94.31 308.79 90.77 309.07 88.31 311.30 C 86.12 313.13 84.36 315.60 81.65 316.70 C 77.68 317.45 73.61 316.77 69.71 315.93 C 70.07 312.19 73.69 310.40 75.62 307.57 C 76.22 305.32 75.67 302.79 76.73 300.70 C 79.85 297.30 85.87 299.58 88.57 295.57 C 90.66 293.03 93.30 290.97 95.26 288.31 C 97.04 285.86 97.22 282.56 99.28 280.29 C 105.21 274.49 109.96 267.66 115.25 261.30 C 117.30 259.88 120.12 259.77 121.79 257.78 C 125.41 253.74 128.47 249.08 129.82 243.77 C 130.75 239.31 135.40 237.12 136.97 232.99 C 136.67 231.83 136.17 230.75 135.71 229.66 C 136.89 227.09 137.61 224.16 136.73 221.38 C 134.85 218.82 131.01 218.33 129.80 215.20 C 128.22 211.81 125.77 208.71 125.15 204.95 C 124.60 198.79 124.63 192.13 128.11 186.74 C 134.78 188.11 140.39 192.24 146.87 194.16 C 151.12 196.02 154.91 191.47 159.22 192.08 C 163.50 192.69 167.58 194.14 171.73 195.26 C 174.38 191.00 176.00 186.24 177.59 181.52 C 179.55 177.95 184.15 176.71 186.03 173.02 C 187.18 170.38 188.20 167.65 188.83 164.84 C 188.96 161.70 188.29 158.54 187.33 155.57 C 186.24 154.54 184.76 155.28 183.54 155.50 C 178.65 157.00 173.45 155.18 168.51 156.47 C 164.89 157.02 162.01 159.40 158.77 160.86 C 155.80 161.04 152.85 160.39 149.88 160.73 C 143.38 160.97 137.60 164.26 131.48 166.08 C 131.44 167.95 132.64 171.11 129.88 171.44 C 127.10 170.85 124.65 169.33 122.06 168.24 C 118.44 170.20 114.29 169.88 110.35 170.41 C 107.38 170.58 106.54 173.85 104.56 175.52 C 99.06 180.34 94.36 186.09 88.34 190.31 C 83.97 192.97 79.82 187.71 75.43 188.43 C 71.89 190.41 68.73 193.19 66.61 196.68 C 65.52 198.11 64.45 200.56 62.22 199.88 C 58.84 199.16 55.14 197.77 53.37 194.59 C 52.78 191.56 53.00 188.45 52.83 185.38 C 50.75 183.74 48.14 181.97 47.99 179.06 C 49.17 174.22 52.16 170.08 55.76 166.74 C 58.18 164.55 58.56 161.02 60.76 158.71 C 64.68 155.94 69.84 155.66 73.65 152.67 C 75.85 150.88 78.17 149.19 80.13 147.13 C 81.43 144.64 82.04 141.86 83.36 139.39 C 85.51 135.45 85.95 130.57 89.26 127.31 C 92.84 123.78 97.42 121.49 101.13 118.12 C 103.96 115.58 105.08 111.41 108.68 109.70 C 112.42 107.51 117.56 105.10 117.48 100.02 C 117.16 95.82 119.81 92.26 122.03 88.96 C 126.02 84.65 131.61 81.38 133.48 75.48 C 134.70 71.80 132.75 66.94 136.23 64.23 Z" /><path fill="#ffffff" d=" M 110.23 301.25 C 111.74 300.05 113.23 302.72 111.74 303.66 C 110.23 304.86 108.76 302.19 110.23 301.25 Z" /></g></g></svg>