<?xml version="1.0" encoding="utf-8"?><!DOCTYPE svg PUBLIC "-//W3C//DTD SVG 1.1//EN" "http://www.w3.org/Graphics/SVG/1.1/DTD/svg11.dtd"><svg version="1.1" xmlns="http://www.w3.org/2000/svg" width="400" height="400" viewBox="0 0 400 400"><g><g><rect fill="#000000" width="400" height="400" /></g><g><path fill="#ffffff" d=" M 230.32 121.26 C 234.31 122.01 238.45 121.64 242.41 122.55 C 246.77 123.94 243.61 129.78 246.67 132.33 C 248.88 135.67 253.04 135.79 256.61 136.24 C 257.27 137.93 257.93 139.62 258.59 141.32 C 264.51 141.93 266.68 148.01 269.83 152.15 C 271.26 154.68 274.51 153.79 276.90 154.10 C 280.72 157.95 280.43 163.73 279.69 168.69 C 277.81 177.45 271.51 184.24 265.73 190.72 C 263.41 193.15 261.69 196.08 259.27 198.40 C 256.20 199.68 252.85 200.17 249.89 201.74 C 247.66 200.95 245.44 199.94 243.05 199.79 C 240.17 200.06 237.44 202.89 234.47 201.40 C 231.12 199.54 227.76 197.66 224.05 196.60 C 228.82 193.14 231.48 187.66 236.09 184.05 C 239.11 181.54 239.77 177.32 242.45 174.54 C 245.22 172.19 250.24 173.75 252.00 170.01 C 253.07 167.80 255.18 164.44 252.64 162.46 C 249.90 160.84 247.05 159.33 244.10 158.15 C 239.68 159.53 235.79 162.22 232.50 165.43 C 230.59 167.49 227.26 166.51 225.14 168.22 C 222.43 170.47 220.54 173.59 217.60 175.57 C 214.66 177.12 211.13 177.38 208.45 179.44 C 206.29 182.68 206.22 187.39 202.55 189.50 C 197.53 192.15 195.27 198.73 189.14 199.36 C 187.97 196.74 186.08 193.59 187.83 190.78 C 190.12 187.23 192.28 182.74 196.80 181.75 C 200.13 180.96 201.57 177.48 202.51 174.54 C 203.80 169.67 204.30 164.62 205.88 159.82 C 200.27 157.46 192.65 156.24 187.86 160.85 C 181.98 165.72 176.86 171.96 169.45 174.55 C 167.91 178.08 166.26 181.60 165.40 185.37 C 164.48 189.18 163.94 193.29 161.49 196.50 C 158.91 199.63 160.67 204.00 159.58 207.65 C 158.24 213.27 154.90 219.84 158.78 225.18 C 162.65 228.72 166.58 232.42 171.17 235.02 C 174.32 235.28 177.50 234.94 180.60 234.38 C 182.60 234.04 184.01 232.24 186.01 231.97 C 190.71 232.42 193.79 236.80 198.08 238.07 C 202.42 237.25 207.49 237.19 210.70 233.71 C 211.61 232.81 212.81 232.34 214.08 232.18 C 218.75 231.54 222.79 228.63 227.58 228.48 C 234.57 226.96 242.02 231.49 248.60 227.54 C 252.58 224.88 256.73 228.03 260.87 228.33 C 265.92 229.35 270.86 227.28 275.89 227.18 C 279.68 227.78 282.97 230.06 286.75 230.73 C 289.55 229.36 291.47 226.60 294.41 225.50 C 299.17 225.12 303.89 224.35 308.59 223.52 C 316.93 218.22 328.77 220.47 335.77 212.78 C 338.67 208.91 345.31 209.04 348.39 212.64 C 349.73 214.17 352.09 215.39 352.01 217.68 C 350.62 218.61 349.06 219.23 347.55 219.92 C 349.52 221.86 351.73 223.80 352.35 226.64 C 347.80 228.20 344.73 231.86 341.81 235.46 C 342.54 240.99 340.83 246.79 336.47 250.43 C 332.42 253.56 328.54 257.90 323.07 258.07 C 317.99 258.64 313.18 260.54 308.11 261.13 C 302.36 261.80 297.83 265.84 292.36 267.41 C 288.22 269.34 283.61 268.78 279.22 269.28 C 275.91 270.40 273.23 272.87 269.87 273.87 C 268.39 274.00 267.21 272.83 265.93 272.27 C 261.57 276.32 255.38 274.76 250.00 275.01 C 244.08 275.18 238.24 273.57 232.33 274.36 C 231.24 273.56 230.40 272.21 228.99 271.99 C 227.52 272.29 226.22 273.08 224.88 273.70 C 223.24 273.26 221.53 272.15 219.82 272.90 C 214.47 274.64 208.72 273.22 204.02 270.43 C 198.46 270.91 193.23 273.05 188.12 275.14 C 183.83 277.36 179.25 272.07 175.05 275.05 C 170.77 277.65 165.67 276.82 160.92 276.99 C 157.93 276.96 155.19 278.29 152.30 278.85 C 149.98 277.16 149.38 274.19 148.38 271.66 C 147.28 271.32 146.18 270.98 145.08 270.66 C 145.03 268.78 144.98 266.91 144.92 265.04 C 143.32 265.34 141.71 265.66 140.11 265.97 C 139.50 263.92 137.81 261.81 138.71 259.62 C 140.38 255.34 140.37 250.66 139.79 246.17 C 139.35 243.11 136.92 240.85 136.14 237.93 C 136.19 235.66 136.85 233.44 136.90 231.17 C 136.37 229.22 134.63 227.88 134.01 225.96 C 135.37 221.97 138.58 218.87 139.61 214.73 C 140.73 210.24 143.97 206.71 145.30 202.30 C 146.48 198.50 148.58 195.14 150.86 191.93 C 153.50 188.21 150.56 183.04 153.37 179.38 C 155.26 177.00 155.86 173.46 154.18 170.82 C 151.98 168.03 149.13 165.78 146.14 163.87 C 144.47 162.63 142.47 164.14 140.91 164.89 C 133.58 169.71 127.20 176.05 122.41 183.40 C 120.41 186.27 120.32 189.90 119.02 193.05 C 117.28 194.97 115.12 196.51 113.60 198.65 C 110.63 202.30 108.64 206.94 104.48 209.46 C 101.75 211.01 99.55 213.25 97.28 215.37 C 94.82 216.58 91.68 216.54 89.75 218.72 C 87.33 221.00 85.53 223.98 82.63 225.73 C 79.14 227.19 77.10 222.65 73.92 222.11 C 72.32 222.33 70.81 222.91 69.28 223.40 C 66.03 219.91 61.12 218.48 58.11 214.82 C 55.64 211.27 60.05 208.47 62.24 206.23 C 65.80 203.07 71.03 202.89 74.64 199.71 C 78.60 196.17 84.20 195.64 88.15 192.13 C 91.11 190.53 94.93 191.75 97.82 189.81 C 103.58 186.23 109.60 183.05 115.14 179.14 C 121.38 173.95 125.96 167.11 131.74 161.47 C 132.00 158.62 132.05 155.75 132.06 152.89 C 130.26 152.51 128.38 151.75 126.56 152.46 C 122.74 152.88 122.32 157.54 119.38 159.30 C 114.71 162.29 108.63 161.83 104.11 165.15 C 102.67 165.98 101.43 167.30 99.75 167.63 C 92.38 168.40 85.65 172.19 78.23 172.67 C 74.71 171.98 71.14 171.34 67.73 170.22 C 64.71 168.24 63.42 164.44 63.00 161.00 C 62.95 158.81 62.22 155.61 65.13 155.06 C 74.08 151.94 84.04 150.07 90.79 142.83 C 98.87 139.83 108.79 143.08 115.99 137.14 C 119.48 140.37 124.34 140.50 128.78 141.25 C 131.73 141.57 133.44 144.19 135.15 146.29 C 137.01 145.49 139.18 145.07 140.68 143.63 C 143.50 139.67 143.49 134.37 146.48 130.51 C 149.94 127.15 154.74 130.26 158.44 131.54 C 162.96 133.79 168.41 134.53 173.00 132.03 C 175.13 129.63 175.93 126.29 178.32 124.08 C 178.69 124.09 179.42 124.12 179.79 124.14 C 183.37 126.52 187.31 128.61 190.29 131.75 C 193.01 135.33 190.03 139.40 188.77 142.90 C 190.83 143.63 192.89 144.47 195.08 144.77 C 199.05 144.75 202.71 143.04 206.40 141.79 C 209.52 141.51 212.66 142.12 215.80 142.03 C 217.94 138.56 219.08 134.57 221.20 131.10 C 224.02 127.63 227.17 124.43 230.32 121.26 Z" /><path fill="#ffffff" d=" M 99.46 234.52 C 101.67 233.74 103.90 233.03 106.07 232.13 C 107.04 233.62 108.29 235.12 108.08 237.03 C 108.62 240.94 104.64 243.27 103.94 246.88 C 102.71 250.27 102.52 255.08 98.53 256.46 C 94.95 257.39 93.93 261.24 91.37 263.42 C 88.93 264.65 86.12 264.68 83.49 265.24 C 81.90 267.04 80.62 269.74 77.92 269.93 C 72.57 270.67 67.32 272.08 61.97 272.75 C 56.10 271.76 51.08 267.65 48.57 262.30 C 47.31 260.68 48.75 258.84 49.16 257.20 C 50.99 257.41 52.83 257.89 54.68 257.71 C 57.37 256.64 59.27 254.35 61.53 252.64 C 66.39 248.96 72.02 246.46 77.18 243.26 C 78.30 240.94 78.44 238.29 79.10 235.82 C 83.42 237.21 87.54 239.14 91.78 240.74 C 94.07 238.39 96.20 235.56 99.46 234.52 Z" /></g></g></svg>