<?xml version="1.0" encoding="utf-8"?><!DOCTYPE svg PUBLIC "-//W3C//DTD SVG 1.1//EN" "http://www.w3.org/Graphics/SVG/1.1/DTD/svg11.dtd"><svg version="1.1" xmlns="http://www.w3.org/2000/svg" width="400" height="400" viewBox="0 0 400 400"><g><g><rect fill="#000000" width="400" height="400" /></g><g><path fill="#ffffff" d=" M 252.44 87.36 C 256.11 86.40 259.71 89.46 263.43 88.39 C 266.39 87.44 269.48 88.67 272.16 89.90 C 276.39 92.76 278.40 97.67 281.30 101.69 C 283.92 105.14 284.67 109.53 286.83 113.24 C 288.30 115.97 289.93 118.80 290.08 121.98 C 289.97 124.53 289.42 127.07 288.61 129.49 C 285.44 133.85 278.88 134.41 276.67 139.66 C 274.01 145.30 270.51 151.52 263.95 153.05 C 260.91 152.87 258.50 150.48 257.06 147.98 C 255.22 144.61 253.96 140.97 252.70 137.37 C 250.35 130.14 251.47 122.46 250.76 115.03 C 249.98 109.38 250.78 103.69 249.99 98.04 C 250.14 94.53 248.95 89.57 252.44 87.36 Z" /><path fill="#ffffff" d=" M 288.04 95.06 C 288.75 91.60 290.76 86.71 295.01 86.94 C 300.69 86.53 304.60 94.05 310.41 91.34 C 313.22 89.77 316.08 91.77 318.98 91.89 C 323.73 92.15 328.36 93.48 332.73 95.33 C 335.88 97.02 338.16 99.93 341.08 101.98 C 342.67 103.02 342.65 105.13 343.33 106.74 C 343.81 108.89 345.51 110.39 346.95 111.93 C 344.42 115.51 342.00 119.17 340.05 123.09 C 338.38 126.43 335.62 129.36 335.26 133.23 C 334.83 135.21 335.15 137.41 334.19 139.22 C 332.43 140.88 330.15 141.85 328.31 143.40 C 326.89 146.58 327.17 150.33 325.32 153.35 C 322.62 157.84 318.78 161.46 315.25 165.28 C 312.78 167.89 311.71 171.56 308.96 173.93 C 306.99 175.64 305.12 177.47 303.08 179.10 C 300.51 181.11 296.77 180.38 294.16 182.19 C 291.81 185.71 293.96 190.44 292.23 194.21 C 290.55 196.88 286.89 195.53 284.30 196.27 C 281.69 198.54 281.79 202.84 278.66 204.63 C 272.15 208.56 269.07 215.77 264.62 221.59 C 261.99 225.01 260.50 229.30 257.07 232.07 C 253.68 234.87 252.17 239.12 249.54 242.52 C 248.38 244.10 246.97 245.51 245.96 247.21 C 245.82 250.66 250.19 253.51 248.05 256.99 C 246.09 262.40 240.04 264.07 236.30 267.93 C 228.27 270.94 222.39 277.53 216.17 283.15 C 214.15 284.31 211.58 283.81 209.37 284.45 C 204.08 286.40 201.90 293.31 195.93 293.85 C 192.19 294.20 188.68 295.61 185.02 296.26 C 179.16 295.44 173.90 298.64 168.17 299.26 C 163.70 300.69 159.07 301.33 154.41 301.84 C 145.09 303.86 135.30 301.18 126.11 304.08 C 122.78 305.01 120.38 307.60 117.52 309.37 C 110.27 309.99 103.18 311.79 95.99 312.90 C 91.65 313.15 87.31 313.10 82.97 312.97 C 79.97 312.93 77.61 310.58 74.61 310.51 C 70.37 310.26 66.12 308.33 61.91 309.84 C 59.53 310.15 56.89 311.70 54.59 310.44 C 53.24 307.48 53.16 302.03 57.25 301.31 C 61.21 300.81 64.82 299.25 68.34 297.49 C 72.64 296.99 76.13 293.98 80.44 293.69 C 83.67 293.56 85.93 290.88 88.83 289.81 C 91.54 288.35 94.65 288.68 97.60 288.42 C 100.77 287.69 103.44 285.73 106.41 284.49 C 108.76 283.90 111.23 284.09 113.60 283.56 C 115.29 282.64 116.49 280.98 118.25 280.18 C 122.03 280.01 125.82 280.34 129.58 279.77 C 131.49 279.34 133.27 280.27 135.01 280.91 C 137.99 279.36 140.50 276.42 144.01 276.26 C 153.06 276.50 160.70 270.67 167.66 265.64 C 170.06 264.70 172.74 264.77 175.10 263.72 C 180.97 259.92 187.37 257.02 193.25 253.23 C 196.64 250.60 199.00 246.96 201.75 243.73 C 204.30 241.26 207.18 239.15 209.97 236.96 C 212.53 235.02 216.74 235.49 218.14 232.15 C 220.70 227.28 227.40 226.91 230.04 222.08 C 231.38 220.09 231.83 217.18 234.38 216.33 C 239.05 214.24 243.47 211.66 247.74 208.84 C 250.39 207.31 250.41 203.60 252.96 201.98 C 255.66 200.03 258.88 198.72 261.05 196.11 C 264.43 191.06 271.55 191.05 275.12 186.13 C 279.86 179.89 284.00 173.18 289.32 167.38 C 291.48 165.33 290.76 162.11 291.51 159.48 C 294.22 156.64 299.27 155.97 300.43 151.69 C 301.00 149.09 303.06 147.49 304.87 145.75 C 306.51 143.02 304.20 139.59 305.82 136.84 C 307.45 133.67 308.88 130.40 310.21 127.08 C 303.73 125.46 297.64 122.54 292.32 118.52 C 290.59 116.07 291.81 113.03 291.51 110.29 C 290.26 105.24 289.12 100.14 288.04 95.06 Z" /><path fill="#ffffff" d=" M 122.29 101.27 C 128.51 100.98 133.56 96.77 138.10 92.94 C 143.54 93.82 149.64 92.87 154.06 96.96 C 155.87 100.32 157.23 103.94 158.14 107.66 C 154.46 109.28 150.70 110.96 147.68 113.69 C 145.50 115.87 143.80 118.51 141.34 120.41 C 138.38 121.62 134.82 120.36 131.94 121.97 C 125.56 125.50 122.93 132.99 117.06 137.10 C 114.12 138.45 110.75 138.25 107.61 138.74 C 103.42 139.39 99.42 137.66 95.47 136.51 C 89.57 134.69 85.67 129.64 80.81 126.15 C 77.85 124.12 75.85 121.11 74.04 118.08 C 76.12 114.74 77.40 110.94 79.82 107.82 C 81.70 105.42 85.00 106.27 87.62 106.20 C 90.17 106.32 92.31 104.52 94.81 104.29 C 98.00 104.53 101.01 105.66 104.13 106.28 C 110.48 105.84 115.85 101.24 122.29 101.27 Z" /><path fill="#ffffff" d=" M 204.83 113.79 C 207.31 111.94 209.90 109.64 213.05 109.22 C 217.54 110.17 222.24 110.23 226.58 111.79 C 229.48 113.73 232.07 116.37 235.78 116.61 C 236.18 119.32 236.01 122.12 234.54 124.51 C 235.32 126.09 236.16 127.65 237.02 129.19 C 235.25 131.68 231.96 131.85 229.63 133.58 C 227.60 135.17 224.95 135.10 222.51 135.36 C 220.81 137.74 218.75 140.05 215.78 140.75 C 211.49 141.94 207.76 144.54 204.47 147.45 C 201.60 151.84 198.02 155.67 194.70 159.71 C 192.69 160.93 190.23 160.65 187.99 160.85 C 184.04 160.76 180.85 163.56 177.03 164.13 C 174.20 164.62 171.28 165.28 168.40 164.79 C 166.13 163.07 162.90 160.04 164.93 157.00 C 166.36 153.72 170.37 153.62 173.14 152.10 C 178.15 148.91 181.69 143.87 186.85 140.87 C 190.30 139.01 192.03 135.38 194.56 132.56 C 196.44 130.78 195.57 127.84 196.81 125.75 C 198.40 124.03 200.47 122.84 202.07 121.13 C 203.45 118.87 202.43 115.49 204.83 113.79 Z" /><path fill="#ffffff" d=" M 116.82 164.74 C 119.51 164.05 120.97 160.67 123.99 160.92 C 131.63 160.39 138.14 165.66 145.67 165.85 C 148.41 165.83 150.41 168.06 152.57 169.44 C 153.85 170.61 156.13 171.79 155.68 173.84 C 154.41 178.55 152.62 183.53 148.57 186.58 C 145.52 189.62 141.11 190.11 137.15 191.18 C 132.30 192.45 128.43 195.82 123.99 197.98 C 119.95 200.14 115.46 197.23 111.23 198.15 C 108.24 199.16 105.67 201.54 102.39 201.53 C 100.08 201.55 97.73 201.89 95.45 201.43 C 91.82 200.34 88.84 197.62 85.02 197.03 C 81.17 196.42 77.37 195.23 74.30 192.74 C 71.56 190.53 67.03 189.12 66.94 184.95 C 66.87 179.40 72.54 176.50 76.06 173.10 C 79.28 169.77 84.22 170.14 88.44 169.43 C 94.56 168.52 100.75 169.36 106.90 168.93 C 108.98 168.75 109.99 166.58 111.35 165.27 C 113.17 165.12 115.02 165.08 116.82 164.74 Z" /><path fill="#ffffff" d=" M 111.03 225.09 C 118.12 223.72 125.20 222.18 132.13 220.14 C 136.29 220.10 139.92 222.79 143.63 224.42 C 143.73 228.87 144.04 233.34 143.64 237.79 C 143.61 239.96 141.24 240.78 139.65 241.65 C 136.88 243.13 133.52 243.86 131.40 246.31 C 127.56 252.79 123.16 259.67 116.26 263.22 C 110.83 264.85 104.86 266.89 99.25 264.85 C 94.96 263.63 91.78 260.36 88.33 257.73 C 86.01 255.75 82.73 256.07 80.06 254.85 C 77.37 253.61 74.88 251.98 72.27 250.58 C 71.32 245.13 69.92 237.99 75.09 234.15 C 79.20 232.21 83.90 231.84 88.08 230.02 C 90.78 228.74 93.74 228.50 96.67 228.30 C 98.34 227.51 99.70 226.22 101.30 225.32 C 104.50 224.67 107.81 225.83 111.03 225.09 Z" /></g></g></svg>