<?xml version="1.0" encoding="utf-8"?><!DOCTYPE svg PUBLIC "-//W3C//DTD SVG 1.1//EN" "http://www.w3.org/Graphics/SVG/1.1/DTD/svg11.dtd"><svg version="1.1" xmlns="http://www.w3.org/2000/svg" width="400" height="400" viewBox="0 0 400 400"><g><g><rect fill="#000000" width="400" height="400" /></g><g><path fill="#ffffff" d=" M 87.68 52.76 C 94.03 50.19 101.01 52.57 107.61 51.62 C 112.73 50.90 118.16 51.02 123.03 52.89 C 126.39 55.92 128.22 60.37 131.61 63.34 C 134.92 64.55 138.25 65.72 141.40 67.31 C 138.03 72.14 136.80 77.99 134.15 83.17 C 132.68 85.42 130.19 86.69 127.93 88.00 C 123.57 90.86 118.20 89.23 113.37 90.30 C 113.28 82.21 104.78 78.60 102.29 71.53 C 96.26 70.23 89.74 68.08 86.33 62.52 C 84.94 59.41 85.50 55.37 87.68 52.76 Z" /><path fill="#ffffff" d=" M 99.00 100.96 C 102.42 100.71 105.61 99.24 109.02 98.97 C 112.84 98.76 116.08 101.14 119.14 103.07 C 124.59 99.82 131.59 99.79 137.07 102.99 C 140.93 105.29 145.36 102.19 149.42 103.51 C 152.85 104.39 155.78 106.57 158.18 109.11 C 157.16 111.65 155.25 113.70 154.24 116.24 C 153.28 121.32 156.18 126.72 153.66 131.60 C 151.68 135.34 146.87 135.05 143.44 136.58 C 136.28 139.29 129.21 134.65 122.08 134.22 C 119.03 134.76 116.41 136.60 113.44 137.42 C 108.52 139.01 102.97 136.60 98.29 139.16 C 94.81 141.03 91.02 142.19 87.20 143.12 C 83.08 139.36 77.61 137.32 72.03 137.61 C 68.24 140.27 64.56 143.14 60.39 145.21 C 59.11 142.93 58.01 140.52 56.37 138.48 C 55.24 137.37 54.01 138.29 52.99 139.00 C 51.10 139.98 51.71 142.47 51.27 144.20 C 49.90 143.87 48.53 143.53 47.17 143.18 C 47.49 141.17 48.03 139.16 47.89 137.11 C 47.32 133.99 45.32 131.29 44.96 128.12 C 45.81 126.44 47.02 125.00 48.18 123.54 C 46.88 122.12 45.64 120.66 44.43 119.17 C 48.45 116.26 53.21 118.29 57.68 117.90 C 59.93 116.52 59.89 113.62 60.46 111.35 C 63.06 110.36 65.66 109.35 68.28 108.43 C 69.17 105.80 70.10 103.19 71.13 100.61 C 74.95 101.15 78.40 102.97 82.12 103.88 C 87.96 104.80 93.25 101.29 99.00 100.96 Z" /><path fill="#ffffff" d=" M 212.62 132.71 C 222.89 130.06 235.03 130.33 243.49 137.47 C 246.70 139.28 249.66 142.88 253.72 142.00 C 256.17 140.71 257.81 138.31 260.25 137.00 C 263.01 136.57 266.30 137.80 267.45 140.50 C 268.97 143.91 269.96 147.61 272.35 150.57 C 273.38 152.39 275.48 154.27 274.71 156.55 C 272.14 158.58 268.63 159.05 266.17 161.19 C 263.97 165.28 263.08 169.93 261.11 174.14 C 259.06 178.68 260.36 184.74 256.22 188.25 C 252.32 189.81 248.00 189.94 243.95 191.02 C 244.62 196.56 248.00 201.10 249.83 206.21 C 249.10 212.69 250.06 219.32 248.60 225.73 C 248.04 228.90 244.56 230.13 241.80 230.70 C 236.94 231.25 232.01 231.28 227.21 232.28 C 223.68 233.07 220.83 235.88 217.08 235.83 C 212.69 236.41 207.65 235.05 203.74 237.59 C 201.02 243.01 201.69 249.27 200.86 255.11 C 199.50 259.96 198.92 265.32 200.93 270.08 C 203.08 273.59 207.76 274.53 209.76 278.20 C 211.39 281.15 214.19 283.09 216.41 285.53 C 218.96 289.53 220.74 294.44 224.96 297.04 C 228.91 298.52 233.55 298.22 237.00 300.96 C 238.67 301.90 240.00 303.80 241.99 304.00 C 244.64 303.13 246.76 301.19 249.09 299.73 C 254.62 303.37 260.93 306.50 264.79 312.08 C 268.50 309.34 267.81 304.43 269.62 300.68 C 273.53 297.00 279.57 298.67 284.02 296.06 C 294.14 291.84 301.84 283.93 310.19 277.13 C 312.93 274.55 314.98 271.32 317.92 268.94 C 321.37 266.33 323.35 262.38 326.43 259.42 C 330.20 254.85 335.58 251.57 338.00 245.98 C 339.36 242.57 342.72 240.67 344.59 237.62 C 345.83 234.33 346.02 230.78 346.50 227.34 C 347.99 227.16 349.48 227.00 350.98 226.85 C 353.33 231.85 353.17 237.46 354.26 242.78 C 355.43 247.19 353.25 251.50 353.29 255.93 C 353.21 262.76 351.35 269.58 352.73 276.39 C 353.77 281.89 350.43 287.11 351.67 292.63 C 348.94 295.47 347.20 300.12 342.86 300.73 C 337.13 301.58 331.98 304.34 326.72 306.57 C 326.28 309.74 326.63 313.24 325.13 316.13 C 320.64 320.11 315.21 322.88 310.39 326.40 C 306.29 331.03 301.74 335.74 295.63 337.55 C 293.06 337.88 290.42 337.06 287.91 337.90 C 283.33 339.44 278.41 338.72 273.73 339.78 C 271.94 340.05 270.15 340.59 268.33 340.39 C 265.25 339.25 262.47 337.29 259.15 336.87 C 251.91 335.73 245.04 333.11 238.09 330.91 C 233.39 329.81 232.33 323.99 227.87 322.59 C 226.58 322.99 225.40 323.65 224.19 324.23 C 220.31 323.74 216.36 323.15 212.96 321.05 C 208.55 318.46 203.15 317.24 199.69 313.25 C 197.93 311.50 198.33 308.89 198.27 306.65 C 198.49 304.26 196.58 302.49 195.26 300.75 C 191.91 296.61 187.83 292.46 187.15 286.93 C 186.23 278.61 186.04 270.24 185.14 261.92 C 184.64 257.31 185.95 252.66 184.90 248.10 C 184.70 247.08 184.48 245.98 185.11 245.06 C 187.11 240.96 188.93 236.69 189.75 232.18 C 188.71 229.63 185.99 228.50 184.18 226.60 C 182.95 222.48 185.07 218.62 187.14 215.22 C 189.91 210.62 184.31 205.41 186.76 200.83 C 189.84 197.46 194.71 196.91 198.77 195.30 C 199.29 195.99 199.80 196.69 200.32 197.39 C 203.43 196.73 206.45 195.74 209.34 194.42 C 214.01 193.22 218.99 193.97 223.51 195.46 C 226.30 196.33 229.95 196.57 231.89 193.93 C 234.42 190.38 238.71 187.89 239.37 183.27 C 241.00 176.80 245.11 171.50 248.36 165.81 C 244.96 164.58 242.12 162.31 238.94 160.70 C 232.51 160.76 226.51 163.67 220.13 164.19 C 216.26 164.75 212.43 163.60 208.56 163.74 C 201.03 164.10 193.49 164.07 185.96 164.01 C 182.42 163.98 178.05 163.07 176.62 159.37 C 175.04 155.39 176.32 150.86 178.14 147.17 C 180.76 142.20 186.47 140.07 191.76 139.56 C 198.56 136.83 205.65 134.93 212.62 132.71 Z" /><path fill="#ffffff" d=" M 125.80 158.26 C 129.52 157.55 133.03 155.55 136.92 155.94 C 140.06 155.98 143.39 158.61 143.02 161.98 C 142.41 165.97 140.55 169.65 139.70 173.59 C 142.29 173.87 144.95 173.82 147.48 174.48 C 150.46 176.22 153.04 178.69 154.78 181.68 C 153.27 182.61 151.75 183.51 150.21 184.39 C 150.48 185.68 150.75 186.98 151.02 188.28 C 147.37 189.03 143.63 189.02 139.92 189.06 C 133.68 189.07 127.85 191.71 121.75 192.66 C 119.12 192.91 116.45 192.34 113.83 192.84 C 110.73 193.35 107.99 194.95 105.08 196.03 C 102.30 197.06 99.27 196.83 96.40 197.44 C 94.80 198.37 93.71 199.92 92.45 201.24 C 88.22 199.15 84.88 195.74 82.10 191.98 C 80.76 192.67 79.43 193.36 78.08 194.04 C 74.73 191.18 69.80 190.42 66.92 187.19 C 67.99 185.57 69.36 184.16 70.33 182.48 C 70.79 177.71 71.06 172.91 71.22 168.13 C 74.73 165.73 78.43 163.34 82.84 163.26 C 94.28 158.51 106.88 158.17 119.09 157.43 C 121.35 157.46 123.54 158.25 125.80 158.26 Z" /><path fill="#ffffff" d=" M 97.12 216.32 C 109.44 216.76 121.38 210.89 133.74 213.64 C 137.71 214.96 141.88 214.60 145.98 214.80 C 149.16 214.79 151.69 216.89 154.18 218.57 C 152.78 220.76 151.20 222.95 150.66 225.56 C 149.86 228.56 150.11 231.84 148.69 234.66 C 146.18 236.32 143.25 237.19 140.61 238.62 C 135.33 241.48 129.10 240.72 123.50 242.46 C 120.95 243.88 120.59 247.62 118.05 248.99 C 113.84 249.75 109.49 248.34 105.28 249.30 C 101.56 250.77 98.13 253.52 94.02 253.69 C 86.94 252.40 79.73 251.17 72.50 251.74 C 70.24 251.96 67.97 251.74 65.75 251.31 C 67.24 247.19 68.52 243.01 69.86 238.85 C 70.54 237.04 71.14 235.00 72.73 233.76 C 75.19 232.88 77.87 233.07 80.38 232.40 C 82.51 229.29 82.64 225.14 85.19 222.27 C 87.40 221.00 90.17 220.85 92.15 219.14 C 93.74 218.11 95.06 216.29 97.12 216.32 Z" /><path fill="#ffffff" d=" M 132.33 270.43 C 137.54 270.74 142.38 266.14 147.56 268.21 C 151.76 271.68 153.57 277.34 158.41 280.22 C 158.30 284.49 158.28 288.78 157.83 293.03 C 157.43 296.18 155.30 298.81 154.94 301.96 C 154.97 304.20 156.42 306.05 157.33 308.01 C 154.55 310.24 150.69 311.87 149.63 315.57 C 148.42 318.33 148.13 321.64 145.91 323.86 C 143.89 325.87 141.90 327.97 139.51 329.56 C 136.85 330.13 134.09 329.86 131.43 330.38 C 129.94 331.17 128.75 332.40 127.68 333.69 C 125.47 336.24 126.44 340.03 124.75 342.82 C 122.08 345.88 117.58 344.85 114.00 345.07 C 107.34 344.75 100.19 346.23 94.10 342.77 C 92.37 344.88 90.54 346.91 88.65 348.88 C 86.61 346.97 84.06 345.89 81.31 345.53 C 79.44 342.78 77.10 340.37 75.26 337.60 C 74.34 332.60 76.08 327.59 76.07 322.56 C 72.21 321.63 68.57 320.05 64.99 318.39 C 66.38 314.64 69.05 310.25 66.82 306.31 C 64.92 304.49 62.46 303.27 60.82 301.16 C 59.55 299.39 58.76 297.34 57.86 295.37 C 62.45 293.95 64.42 289.30 66.20 285.27 C 67.29 282.85 67.91 279.93 70.23 278.35 C 77.33 277.88 83.92 281.08 90.87 281.70 C 95.41 280.02 99.19 276.90 103.13 274.18 C 106.34 272.61 109.65 271.20 113.04 270.07 C 115.20 270.54 116.99 271.97 118.92 272.99 C 120.80 271.76 122.55 269.77 125.01 270.00 C 127.46 269.94 129.89 270.28 132.33 270.43 M 119.39 292.51 C 116.48 292.86 115.80 296.23 113.58 297.65 C 110.49 298.20 107.32 297.98 104.20 298.03 C 103.97 302.03 103.06 305.97 102.98 309.98 C 102.54 313.26 105.57 315.58 108.19 316.87 C 114.69 314.96 121.48 313.58 127.63 310.65 C 131.20 307.25 133.02 302.45 136.27 298.75 C 133.84 296.49 131.49 294.05 128.57 292.41 C 125.58 291.70 122.39 291.98 119.39 292.51 Z" /></g></g></svg>