<?xml version="1.0" encoding="utf-8"?><!DOCTYPE svg PUBLIC "-//W3C//DTD SVG 1.1//EN" "http://www.w3.org/Graphics/SVG/1.1/DTD/svg11.dtd"><svg version="1.1" xmlns="http://www.w3.org/2000/svg" width="400" height="400" viewBox="0 0 400 400"><g><g><rect fill="#000000" width="400" height="400" /></g><g><path fill="#ffffff" d=" M 89.75 96.74 C 95.22 95.08 101.15 98.40 106.25 95.13 C 108.46 96.38 110.66 97.66 112.89 98.88 C 116.03 97.08 119.18 94.65 123.01 94.89 C 127.57 94.62 131.62 97.00 135.93 98.03 C 140.19 99.03 144.16 100.90 148.01 102.94 C 147.36 105.32 146.52 107.69 146.39 110.18 C 146.41 112.83 147.61 115.29 147.94 117.90 C 146.95 119.58 145.55 121.13 143.81 122.03 C 141.52 122.07 139.71 120.33 137.77 119.33 C 136.81 120.57 136.18 122.31 134.60 122.90 C 129.32 124.06 124.86 118.88 119.60 120.53 C 112.30 122.04 104.49 122.85 98.15 127.09 C 95.26 129.14 91.59 128.69 88.30 129.42 C 86.10 129.89 83.43 130.29 81.96 128.13 C 77.77 122.84 74.31 116.99 71.18 111.02 C 73.35 106.59 73.90 101.53 76.28 97.20 C 80.79 97.68 85.31 97.83 89.75 96.74 Z" /><path fill="#ffffff" d=" M 273.47 98.48 C 277.43 97.28 281.60 96.45 285.75 96.50 C 291.96 97.56 298.03 99.34 304.08 101.01 C 308.64 104.63 314.04 108.94 314.44 115.23 C 314.55 116.40 314.58 117.57 314.64 118.75 C 320.08 122.90 323.21 129.95 321.78 136.76 C 320.98 141.04 313.96 141.02 314.31 145.69 C 317.63 151.28 325.85 147.62 330.27 151.72 C 332.74 157.96 330.68 164.77 327.45 170.32 C 325.11 170.63 322.74 170.81 320.48 171.46 C 315.75 172.96 312.02 176.39 307.65 178.60 C 304.46 180.22 300.54 179.58 297.50 181.57 C 294.47 183.51 291.09 184.79 287.65 185.78 C 281.67 187.33 275.52 185.54 269.48 185.78 C 268.21 186.76 266.87 188.05 266.92 189.79 C 268.81 192.20 270.88 194.75 273.68 196.13 C 279.17 198.08 285.66 199.18 290.95 196.05 C 292.87 195.44 292.88 193.17 293.58 191.60 C 296.61 191.70 299.65 191.07 302.68 191.38 C 305.70 192.62 308.10 195.33 311.48 195.66 C 313.48 196.07 315.77 196.08 317.30 197.64 C 319.36 199.39 320.14 202.05 321.12 204.46 C 317.89 206.79 315.25 210.01 311.56 211.65 C 309.55 212.80 308.05 210.38 306.46 209.50 C 305.36 210.07 304.26 210.64 303.15 211.20 C 301.76 210.43 300.37 209.65 298.98 208.88 C 291.90 213.11 283.36 212.39 276.03 215.84 C 271.57 213.62 266.57 211.90 261.52 212.49 C 258.84 213.76 257.76 216.83 256.20 219.17 C 258.84 220.33 261.74 221.75 264.67 220.69 C 270.19 218.59 276.15 218.09 282.01 218.00 C 285.61 217.95 288.79 219.87 292.19 220.77 C 297.06 221.89 301.90 219.76 306.78 220.11 C 308.96 220.68 310.51 222.46 312.31 223.71 C 315.03 225.87 318.67 226.43 321.37 228.62 C 322.66 230.02 322.90 232.03 323.54 233.76 C 318.07 236.10 311.49 234.88 306.62 238.60 C 303.24 240.86 299.09 241.97 295.05 241.84 C 291.72 241.16 288.54 239.71 285.07 239.82 C 279.49 239.15 273.70 240.72 268.29 238.79 C 266.00 237.76 264.61 235.52 262.66 234.05 C 256.31 234.01 253.63 240.87 252.10 245.95 C 252.72 247.99 253.85 249.83 254.83 251.72 C 257.31 251.05 259.83 250.34 262.43 250.49 C 267.02 250.77 271.77 249.10 276.20 250.91 C 281.15 253.08 286.61 251.62 291.80 252.31 C 295.02 252.83 298.17 251.98 301.32 251.42 C 304.52 250.82 307.45 253.31 310.63 252.80 C 313.09 252.17 313.77 249.49 314.94 247.57 C 318.64 248.63 321.22 251.59 324.43 253.50 C 330.04 255.34 336.09 255.25 341.93 254.90 C 346.75 254.60 350.25 251.00 353.51 247.85 C 355.70 249.51 358.32 251.25 358.84 254.17 C 359.23 257.30 359.33 260.54 358.70 263.64 C 355.90 269.07 349.51 271.17 346.33 276.32 C 343.56 280.76 338.95 284.17 338.12 289.62 C 336.09 290.41 334.07 291.34 331.89 291.65 C 328.64 291.56 325.33 289.71 322.14 291.10 C 317.29 292.89 312.42 295.51 307.08 294.98 C 302.80 294.55 298.70 293.19 294.50 292.31 C 294.07 289.59 293.96 286.73 292.71 284.22 C 288.98 282.67 284.87 283.19 280.95 282.84 C 277.58 282.60 274.46 280.84 271.03 281.05 C 268.57 280.96 266.09 281.57 263.66 281.14 C 260.73 279.74 258.88 275.94 255.20 276.42 C 245.66 276.84 236.16 273.65 226.68 275.65 C 222.46 276.56 218.37 274.89 214.24 274.36 C 212.40 276.27 211.49 278.86 209.64 280.76 C 206.77 281.26 203.84 281.17 200.94 281.03 C 196.73 280.92 193.17 278.08 188.95 278.03 C 185.84 277.60 181.62 278.41 179.83 275.12 C 178.14 270.91 178.62 265.85 180.95 261.96 C 182.58 259.08 184.60 255.70 188.17 255.16 C 193.12 254.54 198.10 255.38 203.06 255.22 C 205.89 255.11 208.45 253.74 211.20 253.22 C 214.28 252.96 217.38 254.25 220.43 253.42 C 223.77 252.45 227.25 251.85 230.42 250.39 C 232.10 249.75 232.33 247.78 232.63 246.26 C 233.00 243.44 233.54 240.65 234.45 237.96 C 231.14 234.56 228.05 230.68 223.70 228.59 C 214.49 230.24 205.65 234.98 196.01 234.08 C 193.36 234.72 192.03 230.64 194.10 229.18 C 198.14 224.61 204.70 225.15 210.18 224.15 C 214.93 223.79 219.11 220.87 223.93 221.01 C 228.34 220.73 233.29 221.86 237.20 219.25 C 239.64 217.62 238.70 214.53 238.31 212.16 C 233.70 212.46 229.68 210.31 225.64 208.47 C 219.67 207.78 213.53 211.86 207.68 209.34 C 205.25 208.35 202.59 208.36 200.08 207.67 C 197.72 206.65 195.68 205.03 193.49 203.70 C 197.25 200.95 201.23 198.44 205.51 196.58 C 216.78 193.90 228.28 196.29 239.66 196.76 C 242.98 194.72 243.33 188.04 238.85 187.23 C 234.35 186.41 230.03 184.46 225.47 184.16 C 223.36 186.17 221.92 188.79 219.66 190.64 C 216.71 190.64 213.49 189.83 211.74 187.27 C 209.08 183.72 207.00 179.73 203.71 176.69 C 206.06 172.12 208.66 166.98 213.48 164.63 C 217.52 163.60 221.25 161.76 224.80 159.61 C 220.80 156.50 216.15 153.98 213.19 149.74 C 211.14 146.27 206.69 145.97 203.08 145.78 C 198.39 146.60 195.86 152.25 191.03 152.65 C 186.13 151.18 180.84 151.96 176.07 149.98 C 174.53 149.31 172.48 148.68 172.31 146.72 C 171.62 143.54 170.41 140.42 170.24 137.16 C 170.89 132.89 172.66 128.63 176.02 125.79 C 178.93 129.56 183.86 131.64 188.57 130.76 C 191.87 129.13 192.33 125.24 193.09 122.05 C 193.74 118.61 196.51 116.18 198.03 113.14 C 199.70 109.87 202.02 106.69 205.66 105.51 C 208.38 104.03 210.73 106.76 213.24 107.44 C 216.34 107.90 219.50 107.50 222.61 107.80 C 225.01 109.18 226.88 111.31 229.25 112.75 C 231.77 114.42 234.88 114.62 237.74 115.37 C 240.80 116.06 242.28 120.23 245.58 119.96 C 247.14 118.71 247.94 116.64 249.71 115.65 C 253.43 114.30 257.96 115.87 261.33 113.46 C 263.77 107.38 268.17 102.27 273.47 98.48 M 273.59 148.46 C 272.40 151.71 271.27 154.99 270.31 158.31 C 269.59 160.39 270.87 162.50 272.31 163.91 C 275.94 164.69 279.44 163.14 282.62 161.57 C 280.95 159.32 279.31 157.06 277.64 154.81 C 278.12 152.60 279.93 149.89 278.03 147.92 C 277.29 145.84 273.98 146.47 273.59 148.46 M 241.77 160.04 C 240.12 162.87 238.97 165.95 237.94 169.05 C 239.86 169.00 241.79 168.96 243.72 168.91 C 244.48 166.71 245.27 164.52 246.06 162.34 C 244.63 161.57 243.20 160.81 241.77 160.04 Z" /><path fill="#ffffff" d=" M 134.25 126.79 C 137.88 126.58 139.94 130.38 143.39 130.88 C 147.47 131.73 151.31 134.00 153.73 137.44 C 154.26 139.46 154.17 141.60 153.91 143.66 C 147.79 146.12 141.85 149.95 135.00 149.66 C 129.00 149.22 122.98 148.66 116.96 149.01 C 111.81 149.14 107.29 152.46 102.07 152.02 C 97.80 152.43 92.49 150.58 89.22 154.23 C 85.25 157.79 80.92 161.25 75.65 162.61 C 71.39 163.54 68.08 166.47 64.72 169.05 C 67.02 170.23 69.37 171.61 72.02 171.72 C 79.59 171.36 86.21 167.28 93.43 165.46 C 98.02 164.27 102.72 165.36 107.30 166.04 C 110.05 165.95 112.71 165.06 115.42 164.62 C 116.40 163.75 117.34 162.81 118.43 162.08 C 122.34 161.42 125.93 164.02 129.82 163.83 C 134.67 162.96 139.48 160.16 144.51 161.29 C 147.78 163.74 150.88 166.94 152.13 170.91 C 150.96 173.48 148.13 174.77 145.58 175.59 C 140.33 176.89 134.81 177.46 129.91 179.92 C 125.40 182.44 120.32 179.00 115.64 180.58 C 111.18 182.08 106.61 183.23 101.95 183.90 C 95.93 184.62 90.92 188.69 84.90 189.36 C 82.41 189.62 79.42 188.39 77.40 190.36 C 74.93 192.21 71.19 195.43 74.55 198.34 C 78.16 198.69 81.85 199.01 85.47 198.64 C 87.66 197.15 89.43 195.14 91.32 193.30 C 92.58 194.02 93.67 195.29 95.17 195.49 C 102.65 195.59 110.14 195.26 117.61 195.15 C 123.06 193.06 129.14 188.09 135.00 191.81 C 136.30 191.13 137.61 190.46 138.92 189.80 C 139.66 190.33 140.40 190.86 141.14 191.40 C 145.38 189.95 149.90 189.79 154.31 189.23 C 157.63 188.66 160.43 190.89 163.27 192.19 C 162.96 195.39 162.91 199.02 160.47 201.45 C 158.06 203.76 155.43 206.47 151.87 206.63 C 148.03 206.60 144.15 205.41 140.34 206.33 C 135.40 207.95 130.81 210.53 125.80 211.95 C 121.23 213.00 116.57 210.43 112.06 211.75 C 108.28 215.42 105.58 221.07 99.63 221.49 C 99.58 223.74 99.39 225.99 99.13 228.23 C 100.72 228.89 102.28 229.64 103.97 230.02 C 106.34 229.27 108.15 227.41 110.43 226.48 C 113.36 225.74 116.48 226.27 119.38 225.40 C 121.22 224.50 122.19 222.56 123.49 221.07 C 125.50 221.04 127.52 221.03 129.53 221.03 C 131.64 226.19 137.28 228.48 142.49 228.96 C 147.27 229.78 152.15 229.38 156.95 230.04 C 160.53 230.38 163.01 233.90 166.74 233.68 C 169.77 233.23 171.85 235.77 173.13 238.16 C 172.74 240.40 171.36 242.28 170.46 244.34 C 169.11 247.03 168.34 250.07 166.40 252.43 C 163.97 254.28 160.50 253.37 157.91 254.85 C 155.70 256.45 153.80 258.43 151.72 260.18 C 151.79 262.47 152.27 264.93 151.22 267.08 C 148.19 269.12 144.07 269.67 141.94 272.94 C 137.65 278.53 133.30 285.37 125.84 286.79 C 121.22 287.45 116.88 289.15 112.44 290.45 C 108.73 291.61 104.75 289.79 101.10 291.06 C 96.91 293.39 93.84 297.20 90.02 300.03 C 87.20 302.21 83.50 302.30 80.23 303.39 C 77.48 304.16 74.95 305.72 72.09 306.01 C 69.63 305.52 67.99 303.23 65.62 302.49 C 63.18 302.08 60.70 302.05 58.25 301.82 C 57.80 297.50 58.95 292.58 56.09 288.89 C 54.09 285.71 51.34 282.25 52.12 278.26 C 53.86 272.78 58.55 268.88 60.64 263.56 C 61.58 259.88 59.63 256.14 60.32 252.44 C 62.13 246.45 66.86 241.64 67.41 235.21 C 60.55 233.53 53.40 236.10 46.71 233.56 C 47.72 231.84 48.73 230.13 49.72 228.40 C 46.03 224.39 47.70 218.34 44.38 214.11 C 46.50 211.97 48.99 209.98 50.14 207.10 C 52.18 202.86 51.88 198.02 52.05 193.45 C 50.34 192.64 48.64 191.81 46.96 190.96 C 47.15 186.79 46.27 182.26 48.26 178.40 C 49.86 176.98 52.28 177.06 54.13 176.05 C 55.36 175.01 56.28 173.66 57.29 172.42 C 52.43 169.18 48.52 164.31 42.46 163.28 C 41.54 159.29 40.95 155.24 40.79 151.15 C 42.97 151.42 45.30 152.58 47.44 151.58 C 49.97 150.49 52.41 149.19 54.87 147.94 C 54.81 146.92 54.76 145.90 54.72 144.88 C 56.48 142.93 57.86 140.68 58.71 138.20 C 63.09 137.19 67.40 135.62 71.92 135.42 C 77.67 135.92 83.55 136.22 89.24 135.13 C 95.02 132.64 100.86 130.29 106.74 128.04 C 111.25 126.55 116.02 127.25 119.97 129.88 C 123.84 126.27 129.38 127.01 134.25 126.79 M 105.20 248.00 C 101.59 248.29 97.95 247.68 94.36 248.26 C 91.97 249.67 91.67 252.90 89.57 254.62 C 87.48 255.99 85.05 256.73 82.92 258.04 C 81.32 261.66 80.21 265.49 78.82 269.21 C 83.12 267.76 87.57 266.75 92.13 267.45 C 100.31 266.74 108.53 267.30 116.71 266.81 C 119.77 260.57 122.21 254.01 126.09 248.18 C 122.55 247.41 119.08 246.34 115.60 245.35 C 111.81 244.02 108.81 247.61 105.20 248.00 Z" /></g></g></svg>