<?xml version="1.0" encoding="utf-8"?><!DOCTYPE svg PUBLIC "-//W3C//DTD SVG 1.1//EN" "http://www.w3.org/Graphics/SVG/1.1/DTD/svg11.dtd"><svg version="1.1" xmlns="http://www.w3.org/2000/svg" width="400" height="400" viewBox="0 0 400 400"><g><g><rect fill="#000000" width="400" height="400" /></g><g><path fill="#ffffff" d=" M 193.28 62.25 C 198.67 59.90 203.06 55.22 209.04 54.31 C 214.44 54.76 221.58 55.15 224.05 60.92 C 226.32 66.80 225.32 75.02 219.48 78.49 C 214.26 81.73 208.31 83.47 202.65 85.72 C 199.46 87.23 195.90 85.64 192.59 86.54 C 187.82 87.67 183.31 89.74 178.97 91.99 C 174.38 94.31 170.69 98.26 165.61 99.64 C 162.00 100.70 158.51 102.48 156.76 106.01 C 157.13 106.47 157.87 107.40 158.24 107.86 C 160.85 107.73 163.48 107.42 166.07 107.86 C 169.03 108.50 171.90 107.30 174.78 106.80 C 181.05 105.38 187.52 106.54 193.85 105.72 C 199.89 104.84 206.00 105.04 212.05 104.31 C 222.36 103.94 232.67 104.45 242.98 104.04 C 248.99 103.76 254.89 105.20 260.89 105.20 C 266.97 105.65 272.92 103.75 279.00 104.14 C 284.37 104.29 290.38 104.37 294.79 100.80 C 298.07 97.69 299.83 92.95 299.11 88.45 C 295.22 88.95 291.30 89.01 287.41 88.63 C 285.53 88.32 283.91 89.53 282.22 90.11 C 277.65 92.20 272.53 88.77 267.98 90.95 C 265.59 91.64 263.12 93.94 260.60 92.42 C 254.84 89.34 247.28 91.31 242.13 86.82 C 240.64 85.76 241.05 83.86 241.01 82.30 C 244.22 80.33 247.86 79.17 250.94 76.96 C 256.78 72.82 263.75 69.71 271.03 69.92 C 274.33 69.91 276.90 72.35 280.03 73.04 C 288.36 70.26 297.29 69.77 306.03 69.99 C 311.56 70.34 317.83 72.17 320.75 77.29 C 323.21 81.55 325.24 86.21 325.93 91.11 C 325.94 98.39 323.89 105.47 321.25 112.19 C 320.13 118.84 317.17 124.89 315.30 131.33 C 313.53 134.93 314.60 139.21 312.72 142.77 C 310.92 145.86 312.98 149.34 312.66 152.64 C 312.20 158.40 310.35 164.08 311.18 169.91 C 311.87 174.41 311.88 179.04 310.52 183.42 C 306.92 185.21 303.52 187.34 299.95 189.15 C 297.62 188.53 295.40 187.43 293.00 187.12 C 286.75 187.26 281.32 191.55 275.01 191.05 C 271.92 190.92 269.07 189.54 266.02 189.18 C 262.36 189.89 258.98 191.64 255.29 192.27 C 249.35 193.72 243.21 192.47 237.21 193.20 C 233.22 194.62 230.25 198.35 225.91 198.89 C 221.74 198.88 217.57 197.24 213.44 198.52 C 213.25 199.62 213.06 200.73 212.88 201.83 C 217.32 205.85 223.66 203.62 228.39 201.39 C 231.36 200.33 234.80 197.91 237.84 200.09 C 240.61 201.91 244.49 201.81 246.78 204.28 C 248.62 208.11 248.55 212.68 247.99 216.81 C 247.75 219.46 245.29 220.62 243.19 221.65 C 245.13 224.69 247.76 227.26 249.42 230.49 C 250.61 232.74 251.39 235.19 252.61 237.43 C 253.93 239.70 255.82 241.62 256.91 244.04 C 256.43 246.70 253.94 248.62 253.36 251.34 C 251.91 260.36 254.43 269.96 250.56 278.58 C 249.00 281.91 248.61 286.18 245.69 288.65 C 240.62 290.14 235.98 292.91 230.72 293.77 C 224.60 295.16 218.60 297.14 212.99 299.97 C 209.00 302.15 204.39 300.76 200.10 301.13 C 197.57 301.62 195.55 303.58 192.96 303.90 C 188.76 304.33 184.50 303.73 180.32 304.32 C 178.20 305.41 176.73 307.46 174.55 308.46 C 172.57 309.31 170.46 309.77 168.46 310.53 C 165.95 311.48 164.07 313.54 161.64 314.64 C 158.01 315.22 154.22 314.80 150.73 316.18 C 151.82 318.73 153.77 320.77 156.05 322.31 C 161.90 320.64 168.00 320.33 174.03 319.84 C 180.92 318.66 187.93 318.25 194.90 318.58 C 204.02 318.21 212.90 315.70 222.00 315.10 C 225.19 315.01 228.38 316.07 231.56 315.40 C 236.31 314.36 241.29 314.56 245.90 312.88 C 250.80 311.10 255.83 309.54 261.04 309.09 C 265.59 308.72 270.23 310.23 274.71 308.86 C 280.49 307.15 285.37 303.47 290.65 300.68 C 294.62 298.52 299.11 297.44 302.87 294.87 C 307.57 291.66 313.40 291.06 318.38 288.44 C 322.39 286.32 326.24 283.67 328.85 279.89 C 330.84 277.12 333.75 275.29 336.65 273.61 C 340.09 271.93 340.02 267.15 343.35 265.34 C 346.92 263.31 351.72 261.85 355.30 264.68 C 356.64 267.84 357.29 271.38 356.91 274.81 C 356.61 277.26 353.90 277.98 352.19 279.24 C 349.36 280.72 347.95 283.73 346.40 286.35 C 343.60 291.64 339.64 296.40 334.50 299.53 C 329.25 302.78 323.33 305.49 319.67 310.69 C 316.64 315.42 310.86 316.79 306.16 319.22 C 303.45 320.31 301.83 322.87 299.54 324.53 C 296.58 326.01 293.16 326.47 290.38 328.36 C 285.65 332.24 279.97 327.62 274.82 327.24 C 268.60 326.85 262.33 326.84 256.10 326.75 C 251.19 329.36 245.81 331.05 241.20 334.22 C 238.87 335.24 236.16 333.97 233.75 334.81 C 229.92 336.08 226.25 337.96 222.16 338.21 C 215.29 338.95 209.17 343.33 202.13 342.84 C 195.42 342.45 188.72 343.30 182.01 343.05 C 173.59 342.90 165.10 343.55 156.98 345.81 C 148.00 346.14 138.91 346.46 130.00 345.02 C 123.66 343.91 116.96 343.89 111.09 340.98 C 107.33 339.30 102.94 340.67 99.22 338.79 C 95.31 336.96 90.73 336.52 87.34 333.68 C 84.44 331.25 82.09 328.19 78.86 326.16 C 76.37 324.34 73.12 323.32 71.41 320.60 C 69.57 317.49 68.37 314.03 67.52 310.53 C 67.04 306.89 68.80 303.12 67.40 299.57 C 65.22 293.30 60.00 288.76 57.28 282.76 C 55.97 279.25 51.37 277.89 51.29 273.82 C 51.02 270.27 49.45 267.09 47.87 263.97 C 48.63 261.22 50.41 258.38 49.28 255.48 C 46.92 249.88 48.84 243.68 47.19 237.93 C 46.27 232.40 43.29 227.26 43.65 221.54 C 43.81 218.74 43.33 215.97 43.36 213.19 C 44.25 208.59 48.00 205.23 49.34 200.81 C 48.43 194.45 46.99 187.89 48.75 181.53 C 51.07 177.30 55.24 174.48 59.55 172.54 C 63.31 170.84 65.97 167.33 69.85 165.88 C 73.30 164.66 75.78 168.01 78.11 169.95 C 81.56 165.80 81.20 160.05 83.25 155.26 C 84.84 152.19 82.96 149.09 82.49 146.02 C 82.83 143.77 84.36 141.61 83.70 139.29 C 82.34 134.33 80.04 129.48 80.14 124.25 C 82.50 119.79 88.42 117.18 87.72 111.32 C 84.68 109.13 83.55 105.16 84.70 101.65 C 86.50 97.63 89.13 93.95 90.22 89.63 C 90.79 87.57 90.94 85.21 92.59 83.65 C 94.97 80.69 99.04 80.45 102.41 79.39 C 106.69 78.10 111.06 80.12 114.59 82.40 C 117.64 88.71 117.11 96.71 122.38 101.86 C 126.54 102.56 128.06 96.98 131.55 95.64 C 138.72 93.41 144.97 89.05 151.47 85.41 C 156.06 81.61 162.07 80.34 166.80 76.77 C 170.11 74.33 173.45 71.86 177.30 70.32 C 182.89 68.16 187.74 64.53 193.28 62.25 M 261.10 125.82 C 257.32 124.52 253.68 121.96 249.51 122.55 C 242.31 123.29 235.03 123.24 227.84 122.42 C 213.54 121.72 199.22 121.84 184.91 122.12 C 179.52 122.06 174.70 125.20 169.28 124.87 C 165.84 124.65 163.34 127.77 159.96 127.94 C 154.62 128.28 149.36 126.87 144.03 126.95 C 139.85 127.09 135.23 126.13 131.55 128.63 C 127.67 131.26 122.81 130.59 118.53 132.03 C 118.67 134.31 118.87 136.59 119.18 138.86 C 123.41 139.12 127.66 138.85 131.86 139.37 C 135.85 139.87 139.91 140.42 143.91 139.82 C 146.95 139.24 149.85 137.95 152.97 137.77 C 159.61 137.32 166.27 138.57 172.91 137.84 C 176.99 137.22 180.77 135.18 184.95 135.06 C 194.99 134.67 205.02 134.07 215.00 132.96 C 219.03 132.87 223.23 131.11 227.11 132.89 C 232.69 135.50 238.52 132.04 244.07 131.13 C 248.52 130.84 252.76 132.54 257.11 133.17 C 261.92 132.45 266.47 130.62 271.04 129.04 C 276.68 129.76 280.01 135.23 285.23 136.95 C 290.94 138.60 295.69 131.65 294.53 126.58 C 291.91 120.97 284.65 122.77 279.76 121.15 C 273.11 118.78 266.75 122.76 261.10 125.82 M 192.54 159.62 C 187.29 160.80 181.85 160.57 176.56 161.57 C 172.15 162.44 167.70 161.57 163.27 161.57 C 153.52 162.47 143.72 161.96 133.94 162.12 C 130.20 162.40 127.01 159.50 123.27 160.17 C 119.40 160.84 115.34 161.04 111.68 162.57 C 108.96 165.12 110.23 169.44 109.68 172.79 C 108.96 175.80 111.76 177.73 113.95 179.13 C 117.34 181.36 121.54 181.45 125.23 182.86 C 127.51 183.71 129.26 186.21 131.88 185.83 C 138.73 185.02 145.61 184.56 152.48 184.04 C 155.38 183.72 157.97 181.96 160.95 182.08 C 164.40 182.06 167.85 181.91 171.25 181.32 C 179.73 180.06 188.34 182.68 196.77 180.85 C 203.76 179.51 210.87 178.70 217.99 179.03 C 227.22 179.56 235.82 174.99 245.01 174.99 C 250.11 175.21 254.90 172.75 260.02 173.26 C 265.18 174.04 269.90 171.19 275.01 171.15 C 277.91 170.87 281.12 171.38 283.70 169.70 C 284.77 168.91 286.36 168.01 285.83 166.43 C 280.69 163.85 275.03 162.59 269.83 160.17 C 265.88 158.23 261.24 158.70 257.22 160.16 C 251.57 162.25 245.78 159.44 240.06 159.37 C 227.04 159.20 214.01 159.77 201.02 158.98 C 198.18 158.85 195.31 158.92 192.54 159.62 M 76.31 175.69 C 75.81 178.99 74.98 182.44 76.16 185.71 C 77.99 191.36 76.43 197.25 76.11 203.00 C 76.06 208.21 73.45 212.94 73.17 218.14 C 72.79 224.76 73.01 231.42 72.97 238.05 C 72.74 241.31 74.74 244.01 76.03 246.82 C 79.37 253.88 78.70 262.25 83.06 268.91 C 85.44 274.70 88.07 280.37 91.28 285.76 C 94.12 290.18 94.33 295.61 96.75 300.20 C 97.53 301.79 98.25 303.40 99.03 304.99 C 101.29 310.10 106.16 313.34 110.54 316.49 C 115.45 318.31 120.59 316.10 125.06 314.06 C 129.80 311.73 135.36 312.40 140.10 310.08 C 145.83 307.26 151.38 304.08 157.03 301.09 C 159.53 299.80 162.65 300.74 165.01 299.08 C 169.55 296.30 173.52 292.60 178.43 290.45 C 184.21 288.28 189.93 285.66 196.18 285.27 C 204.36 284.37 212.27 281.49 219.28 277.20 C 222.86 275.00 224.94 271.10 225.90 267.11 C 225.22 266.58 224.54 266.04 223.88 265.50 C 217.87 267.72 210.94 265.86 205.36 269.37 C 199.56 272.77 195.88 279.25 189.17 281.20 C 185.50 282.90 181.77 280.78 178.09 280.34 C 174.28 280.89 170.96 283.07 167.30 284.16 C 164.83 285.03 162.00 285.12 159.90 286.84 C 154.89 290.93 148.74 294.65 142.01 293.97 C 139.42 293.97 136.73 293.27 134.23 294.24 C 129.58 295.80 124.38 296.98 119.59 295.43 C 116.52 293.20 114.41 289.91 111.85 287.15 C 109.79 285.09 110.24 282.07 110.17 279.42 C 103.99 277.37 98.16 273.84 94.27 268.51 C 93.23 264.85 96.06 259.74 100.14 259.56 C 103.95 258.98 107.29 256.85 111.06 256.12 C 117.69 254.99 123.37 251.18 129.33 248.31 C 133.19 246.45 135.68 242.89 138.81 240.13 C 141.01 241.71 142.95 244.39 145.96 244.10 C 150.05 244.17 153.21 241.12 157.04 240.17 C 160.06 239.41 163.09 238.50 165.68 236.71 C 169.66 234.46 171.99 230.41 174.77 226.96 C 172.00 224.80 168.56 223.55 165.09 223.20 C 160.32 224.96 155.96 228.00 150.81 228.63 C 148.92 228.67 147.04 228.24 145.15 228.27 C 142.35 229.32 140.08 231.60 137.01 231.97 C 131.20 232.83 126.01 236.26 120.01 236.03 C 115.18 235.87 112.64 240.74 109.83 243.89 C 106.72 248.56 99.94 251.71 94.88 248.11 C 91.98 245.71 88.20 243.63 86.99 239.84 C 86.78 236.72 89.12 234.17 90.85 231.81 C 93.26 228.22 98.26 229.75 101.41 227.32 C 105.74 224.41 110.44 222.11 115.36 220.36 C 119.82 218.75 123.15 214.65 128.02 214.13 C 131.56 213.84 135.33 212.07 136.96 208.80 C 137.66 204.91 133.01 204.63 130.45 203.49 C 124.20 200.68 117.22 202.96 110.73 201.29 C 106.96 200.37 102.64 200.20 99.75 197.27 C 94.00 191.96 86.93 188.18 81.74 182.25 C 79.85 180.13 78.19 177.82 76.31 175.69 M 203.75 232.71 C 199.14 233.95 194.41 235.00 190.11 237.15 C 186.27 239.12 184.11 243.49 179.80 244.68 C 175.92 245.84 172.09 247.27 168.93 249.88 C 164.08 253.68 157.95 256.31 154.67 261.77 C 153.73 262.89 154.13 264.35 154.19 265.67 C 158.45 266.60 162.96 265.98 166.67 263.64 C 171.84 260.48 177.33 257.82 183.22 256.27 C 188.37 255.12 193.04 252.54 198.15 251.30 C 203.06 250.76 207.08 247.35 212.07 247.13 C 216.90 246.86 220.73 243.62 224.95 241.65 C 225.07 239.01 225.57 235.70 223.25 233.81 C 219.42 231.03 214.63 229.60 209.91 229.66 C 207.74 230.42 205.98 232.07 203.75 232.71 Z" /><path fill="#ffffff" d=" M 191.43 129.37 C 193.05 129.23 194.47 129.86 195.68 130.92 C 194.66 131.99 193.68 133.31 192.01 133.02 C 191.82 131.80 191.63 130.58 191.43 129.37 Z" /></g></g></svg>