<?xml version="1.0" encoding="utf-8"?><!DOCTYPE svg PUBLIC "-//W3C//DTD SVG 1.1//EN" "http://www.w3.org/Graphics/SVG/1.1/DTD/svg11.dtd"><svg version="1.1" xmlns="http://www.w3.org/2000/svg" width="400" height="400" viewBox="0 0 400 400"><g><g><rect fill="#000000" width="400" height="400" /></g><g><path fill="#ffffff" d=" M 76.36 61.60 C 81.59 60.51 86.82 62.56 91.55 64.58 C 98.30 69.29 106.73 69.89 114.27 72.75 C 119.94 75.30 125.87 68.44 131.19 72.69 C 132.96 71.53 134.69 69.92 136.96 70.06 C 141.60 70.06 146.20 69.24 150.83 69.26 C 156.63 70.03 162.49 69.98 168.31 70.51 C 175.06 70.66 181.88 69.21 188.59 70.36 C 191.54 73.31 193.75 77.12 194.78 81.17 C 194.79 84.73 193.48 88.27 194.17 91.83 C 194.84 94.47 196.05 96.97 196.39 99.70 C 197.21 102.41 194.62 104.29 193.31 106.30 C 190.95 109.10 189.92 112.70 189.32 116.23 C 188.77 119.88 188.05 123.77 189.66 127.26 C 191.55 131.52 190.38 136.22 189.51 140.57 C 188.36 142.96 185.84 144.24 184.03 146.07 C 179.77 150.45 175.39 154.84 170.18 158.08 C 165.30 159.71 160.00 158.71 154.95 158.97 C 150.48 158.68 146.61 161.68 142.14 161.29 C 137.32 161.74 131.96 160.96 127.71 163.74 C 123.53 166.39 118.52 167.10 114.06 169.14 C 113.96 172.95 114.31 176.81 113.69 180.59 C 112.08 183.05 109.42 185.92 106.16 184.84 C 102.26 184.18 97.75 181.34 94.13 184.23 C 91.37 186.36 87.76 189.00 87.95 192.87 C 91.08 199.28 93.67 206.14 98.40 211.61 C 102.45 214.24 107.75 215.27 110.73 219.36 C 111.30 222.42 111.29 225.62 110.70 228.67 C 109.51 231.00 106.84 231.91 104.76 233.26 C 106.07 240.83 104.86 248.44 104.97 256.06 C 105.02 260.27 102.76 264.06 100.29 267.30 C 98.35 268.45 96.24 269.41 94.03 269.89 C 89.41 268.78 86.23 263.93 86.44 259.32 C 88.02 255.80 91.49 253.55 93.07 250.02 C 92.43 247.25 88.64 248.14 86.51 247.31 C 85.31 243.91 84.22 240.47 82.83 237.13 C 80.70 237.36 78.54 238.11 76.40 237.72 C 72.20 235.27 69.89 230.03 71.25 225.30 C 72.90 221.15 75.60 217.40 76.67 213.03 C 75.92 209.24 72.98 205.58 74.56 201.62 C 75.60 197.40 80.13 195.49 82.04 191.80 C 82.23 189.45 80.16 187.79 79.13 185.87 C 74.86 179.84 75.58 172.03 75.94 165.05 C 76.36 159.36 74.94 153.31 77.57 147.98 C 76.67 145.51 75.52 142.91 76.06 140.23 C 77.14 137.16 79.80 134.94 80.87 131.88 C 80.72 126.89 79.20 122.09 77.58 117.42 C 75.40 112.28 81.63 107.66 79.61 102.43 C 76.51 94.64 78.44 85.49 73.62 78.33 C 70.84 76.00 66.86 75.95 64.07 73.65 C 62.76 70.42 65.37 67.59 67.59 65.59 C 70.29 63.84 73.31 62.59 76.36 61.60 M 153.90 89.73 C 146.60 90.38 139.30 91.03 131.97 91.06 C 125.55 92.03 118.88 92.02 112.77 94.49 C 111.86 98.12 109.98 101.38 107.72 104.33 C 110.09 106.76 112.97 108.60 116.00 110.10 C 119.16 108.72 122.53 107.86 126.01 107.98 C 133.78 108.02 140.52 103.38 148.03 102.10 C 154.29 101.62 160.93 101.69 166.59 98.59 C 169.07 95.65 168.52 90.65 165.70 88.10 C 161.67 87.36 157.83 89.20 153.90 89.73 M 160.67 121.72 C 155.19 123.60 150.64 127.70 144.87 128.79 C 140.52 129.34 136.05 132.33 131.93 129.40 C 129.81 129.99 127.66 131.17 125.42 130.58 C 121.58 129.83 117.22 127.70 113.72 130.58 C 113.41 134.49 113.92 138.66 115.82 142.16 C 116.70 144.08 119.12 143.84 120.86 144.27 C 123.23 144.50 125.83 145.37 128.07 144.10 C 131.76 142.09 135.84 140.85 140.02 140.44 C 148.37 140.95 157.60 139.92 164.14 134.21 C 167.46 130.46 170.46 125.90 170.22 120.67 C 167.02 120.65 163.71 120.57 160.67 121.72 Z" /><path fill="#ffffff" d=" M 228.31 61.52 C 233.13 61.42 236.83 65.06 241.00 66.90 C 245.78 68.69 250.84 69.57 255.89 70.18 C 258.87 70.29 260.26 73.89 263.22 74.04 C 266.42 74.31 269.63 74.44 272.81 74.95 C 274.46 73.49 276.05 71.91 278.04 70.90 C 281.67 72.19 284.51 75.14 288.26 76.19 C 291.43 75.81 294.67 74.77 297.84 75.78 C 300.14 76.72 302.21 78.13 304.36 79.37 C 303.80 81.13 303.48 83.85 301.10 83.93 C 298.94 83.20 297.02 81.90 294.84 81.25 C 291.11 81.53 287.39 82.14 283.71 82.81 C 279.16 83.75 275.17 87.98 270.31 86.19 C 264.05 85.39 256.12 83.21 251.13 88.29 C 251.34 91.78 251.65 95.51 253.31 98.65 C 255.58 101.12 258.47 102.92 261.00 105.10 C 263.99 103.63 267.34 102.20 270.73 103.16 C 273.57 104.67 276.11 106.70 278.93 108.27 C 280.99 106.47 282.72 104.11 285.27 102.99 C 288.26 102.96 290.94 104.54 293.82 105.15 C 296.52 106.02 299.17 104.55 301.86 104.31 C 304.19 104.97 306.03 107.88 308.70 106.79 C 313.40 104.85 317.45 101.41 320.22 97.15 C 321.12 96.07 321.18 94.62 321.02 93.29 C 317.43 90.02 313.55 87.00 309.20 84.81 C 307.47 84.02 306.71 82.17 305.68 80.70 C 310.12 79.41 314.76 77.22 319.46 78.50 C 321.97 79.85 324.18 81.68 326.51 83.32 C 325.92 87.79 327.80 91.97 328.61 96.28 C 329.39 100.67 330.86 104.91 331.38 109.36 C 331.47 113.45 336.12 115.30 336.78 119.19 C 337.24 123.06 337.28 127.02 336.75 130.88 C 335.62 134.78 332.82 138.08 332.12 142.12 C 332.41 144.63 333.42 146.99 334.11 149.41 C 332.80 149.98 331.51 150.56 330.22 151.15 C 332.12 153.85 336.14 155.82 335.50 159.63 C 335.23 165.09 336.32 170.48 336.47 175.92 C 336.53 178.70 335.04 181.34 332.62 182.71 C 327.80 183.43 322.90 182.92 318.06 182.99 C 317.71 181.40 317.28 179.82 317.12 178.20 C 318.40 175.86 320.44 174.02 321.62 171.61 C 324.17 166.80 324.62 161.28 325.61 156.02 C 325.10 150.33 325.19 144.36 323.04 138.97 C 321.22 134.97 316.27 135.08 312.62 134.12 C 308.54 132.59 304.26 135.30 300.25 133.25 C 297.63 135.90 294.98 138.52 292.30 141.10 C 291.15 140.02 290.06 138.87 288.76 137.98 C 285.73 138.26 283.13 140.11 280.16 140.62 C 276.88 139.56 273.78 137.34 270.19 137.80 C 268.10 138.03 265.98 138.13 263.96 137.46 C 262.86 138.02 261.75 138.58 260.64 139.13 C 261.25 137.73 261.11 135.61 262.71 134.89 C 264.92 134.46 267.24 134.38 269.28 133.29 C 271.83 131.77 274.83 133.28 277.54 132.56 C 281.32 131.21 284.31 128.27 288.17 127.08 C 290.52 127.20 292.61 128.60 294.96 128.74 C 297.56 128.49 300.18 127.27 302.78 128.21 C 306.27 129.33 310.00 128.81 313.38 127.57 C 311.90 125.84 310.36 124.16 308.84 122.47 C 307.67 122.68 306.49 122.89 305.32 123.10 C 306.51 120.03 307.40 116.85 308.46 113.74 C 310.84 117.69 314.23 121.40 314.60 126.20 C 316.82 123.43 319.54 120.64 320.04 116.97 C 320.15 114.23 317.61 112.42 315.19 111.88 C 311.69 110.98 308.21 109.76 304.59 109.46 C 303.32 110.35 302.30 111.54 301.25 112.67 C 300.42 111.75 299.63 110.78 298.68 109.98 C 296.10 109.50 294.19 111.70 291.96 112.53 C 288.27 111.92 284.67 110.82 281.18 109.51 C 280.64 110.69 280.09 111.86 279.56 113.04 C 276.01 112.28 272.36 110.55 268.71 111.75 C 266.36 112.48 263.86 112.95 261.66 111.52 C 258.25 114.11 253.98 115.79 251.44 119.35 C 251.37 122.23 251.81 125.09 252.18 127.94 C 252.47 132.87 258.92 133.55 259.90 138.20 C 254.28 137.92 250.35 142.18 245.94 144.91 C 243.01 147.06 239.42 145.15 236.27 144.69 C 231.05 143.32 225.61 144.61 220.37 143.63 C 215.78 142.38 213.72 136.69 215.48 132.51 C 217.39 129.47 220.61 127.54 222.57 124.54 C 223.21 122.15 223.71 119.64 223.54 117.16 C 222.33 114.12 219.69 111.50 219.92 108.02 C 220.15 102.41 223.28 97.16 222.54 91.45 C 221.69 84.97 222.01 78.43 221.96 71.92 C 221.54 67.57 224.56 63.40 228.31 61.52 Z" /><path fill="#ffffff" d=" M 196.51 163.60 C 200.16 162.55 204.05 161.79 207.87 162.01 C 212.16 163.40 215.62 166.57 219.84 168.19 C 223.99 165.51 228.57 163.51 233.37 162.30 C 237.19 161.38 241.13 162.22 244.92 162.90 C 248.20 163.54 250.45 166.27 253.40 167.63 C 256.52 167.91 259.62 166.78 262.76 167.14 C 265.44 167.88 267.83 169.36 270.34 170.54 C 269.50 172.46 268.34 174.21 266.98 175.80 C 262.40 174.74 257.68 175.59 253.05 174.92 C 249.06 174.65 245.04 172.65 241.06 174.03 C 238.12 174.90 235.05 175.09 232.00 175.01 C 225.02 174.82 217.80 176.15 211.76 179.80 C 209.93 180.70 208.12 181.96 205.99 181.90 C 200.11 181.77 194.48 179.78 189.02 177.77 C 187.63 179.12 186.25 180.49 184.85 181.84 C 182.08 181.17 179.19 181.04 176.63 182.50 C 172.32 184.65 166.22 182.96 163.15 187.37 C 162.81 189.18 162.54 191.51 164.19 192.79 C 167.13 195.67 171.14 197.36 175.18 197.99 C 178.65 197.67 181.87 196.14 185.24 195.35 C 188.11 194.89 191.05 195.15 193.94 194.85 C 201.99 193.08 209.96 196.18 217.93 197.02 C 221.57 196.43 225.03 194.05 228.84 195.17 C 233.19 196.56 237.91 198.04 242.44 196.56 C 244.89 194.37 246.46 190.84 249.86 189.96 C 251.99 191.15 253.53 193.55 256.12 193.77 C 258.21 194.23 260.73 193.94 262.26 195.75 C 265.60 198.28 265.43 202.78 266.71 206.39 C 267.74 209.96 270.43 212.79 271.36 216.39 C 271.67 218.77 271.65 221.22 271.37 223.60 C 270.41 225.22 269.09 226.57 267.89 228.01 C 268.75 228.74 269.62 229.47 270.48 230.21 C 269.91 232.05 269.07 233.86 269.06 235.82 C 270.42 239.84 273.26 243.21 274.36 247.34 C 275.23 250.63 276.24 253.89 276.84 257.25 C 277.73 261.09 274.72 264.28 274.39 267.98 C 273.84 272.64 273.74 277.36 274.14 282.03 C 274.55 285.59 278.36 288.65 276.46 292.37 C 274.70 296.36 273.30 300.60 273.94 305.03 C 273.72 309.13 279.21 310.77 279.00 314.82 C 277.23 319.98 271.49 322.46 269.64 327.64 C 267.75 330.60 267.70 335.75 263.43 336.26 C 258.51 337.77 253.60 340.30 248.30 338.78 C 245.79 337.09 244.38 334.02 243.98 331.10 C 245.28 327.35 248.47 324.62 249.88 320.91 C 251.15 317.87 250.72 314.49 251.45 311.33 C 251.99 309.43 253.74 307.79 253.33 305.69 C 252.94 302.93 252.17 299.97 250.21 297.91 C 247.33 296.81 244.46 295.70 241.61 294.54 C 237.82 293.72 233.51 293.38 230.81 290.21 C 228.72 286.03 229.12 280.92 231.96 277.14 C 233.28 277.75 234.61 278.37 235.95 278.98 C 237.70 275.86 239.20 272.35 242.39 270.39 C 245.26 268.10 249.07 267.17 251.68 264.57 C 252.85 261.51 251.42 258.44 249.96 255.79 C 243.00 258.76 235.54 260.32 228.72 263.59 C 224.96 264.02 220.98 263.69 217.50 265.50 C 211.52 267.86 205.39 272.92 198.62 270.32 C 193.13 267.79 187.03 267.91 181.20 266.78 C 175.73 265.52 170.81 268.98 165.73 270.35 C 160.55 269.88 155.37 268.70 150.14 269.23 C 147.42 269.56 144.68 269.49 141.94 269.40 C 138.50 269.35 135.12 271.84 131.72 270.33 C 129.42 269.42 126.79 268.72 125.16 266.73 C 124.84 262.04 125.73 257.04 123.13 252.80 C 125.17 249.38 127.35 245.98 130.44 243.41 C 135.15 239.76 135.71 233.42 137.14 228.07 C 138.04 223.45 140.87 219.51 141.99 214.98 C 139.51 209.03 139.60 202.49 140.21 196.17 C 140.64 194.24 142.12 192.79 143.24 191.24 C 149.58 183.69 148.35 172.24 155.34 165.11 C 157.92 164.87 160.46 165.54 163.03 165.61 C 166.01 165.30 168.74 163.25 171.81 163.90 C 175.96 164.68 180.31 164.90 184.14 166.84 C 188.44 168.87 193.16 166.35 196.51 163.60 M 163.83 212.32 C 167.86 214.10 171.37 216.83 175.25 218.86 C 179.11 219.19 182.97 217.95 186.83 218.46 C 190.88 219.26 194.95 220.65 199.13 219.81 C 204.52 219.85 209.62 217.48 215.04 217.92 C 218.49 217.93 221.43 220.03 224.76 220.57 C 229.15 220.05 232.20 216.57 234.06 212.83 C 228.63 212.18 223.39 213.95 218.19 215.18 C 209.81 216.67 201.37 214.59 192.94 215.01 C 188.34 215.34 184.48 212.21 179.97 211.98 C 175.56 211.68 171.19 211.03 166.83 210.30 C 165.42 209.95 164.73 211.56 163.83 212.32 M 213.91 234.89 C 208.97 235.82 203.96 236.45 198.95 236.85 C 186.86 236.58 174.27 234.07 162.63 238.58 C 160.75 239.08 160.30 241.10 159.62 242.65 C 163.86 245.63 168.40 248.45 173.55 249.52 C 176.11 250.18 178.60 248.29 181.16 248.96 C 185.13 249.86 189.17 250.47 193.20 251.02 C 198.19 250.61 202.96 248.27 208.05 248.69 C 210.75 249.01 213.45 248.68 216.11 248.20 C 219.56 247.53 222.37 250.20 225.05 251.92 C 227.18 253.18 229.51 255.67 232.17 254.28 C 237.66 252.15 242.35 248.43 247.16 245.11 C 250.29 242.94 250.73 238.90 251.17 235.44 C 245.87 235.07 242.19 230.48 236.93 230.07 C 233.69 229.70 230.45 228.93 227.18 229.13 C 222.27 229.82 218.78 234.04 213.91 234.89 Z" /><path fill="#ffffff" d=" M 316.23 171.35 C 317.61 170.24 318.97 172.67 317.60 173.53 C 316.22 174.66 314.88 172.21 316.23 171.35 Z" /></g></g></svg>